<?xml version="1.0" standalone="no"?>
<!DOCTYPE svg PUBLIC "-//W3C//DTD SVG 20010904//EN"
 "http://www.w3.org/TR/2001/REC-SVG-20010904/DTD/svg10.dtd">
<svg version="1.0" xmlns="http://www.w3.org/2000/svg"
 width="364.000000pt" height="364.000000pt" viewBox="0 0 364.000000 364.000000"
 preserveAspectRatio="xMidYMid meet">
<metadata>
Created by potrace 1.14, written by Peter Selinger 2001-2017
</metadata>
<g transform="translate(0.000000,364.000000) scale(0.100000,-0.100000)"
fill="#000000" stroke="none">
<path d="M1817 3624 c-1 -1 -45 -4 -97 -7 -253 -15 -504 -85 -727 -202 -212
-112 -428 -290 -563 -465 -19 -24 -40 -50 -46 -57 -6 -6 -36 -49 -67 -95 -121
-182 -229 -458 -262 -668 -4 -25 -9 -52 -10 -60 -16 -90 -23 -357 -11 -420 3
-14 8 -50 11 -80 11 -93 45 -239 82 -344 195 -560 662 -997 1228 -1151 50 -13
104 -26 120 -29 17 -3 59 -10 95 -16 194 -31 442 -22 659 27 613 135 1115 588
1315 1187 38 115 71 263 85 391 9 82 7 342 -4 405 -29 174 -42 231 -77 335
-22 65 -62 166 -89 224 -46 97 -162 285 -199 321 -8 8 -33 38 -54 65 -123 155
-360 344 -558 442 -219 109 -419 165 -669 189 -63 5 -159 10 -162 8z m91 -164
c-2 -5 2 -10 7 -11 6 0 16 -5 23 -11 8 -7 12 -7 12 0 0 13 24 10 43 -6 13 -11
17 -10 26 5 8 14 10 14 11 3 0 -9 10 -15 23 -16 12 0 31 -4 41 -9 15 -7 17 -5
11 6 -5 8 -4 11 0 6 15 -13 14 -36 -3 -49 -13 -11 -15 -10 -9 4 4 12 0 21 -11
26 -23 11 -47 9 -45 -5 1 -6 -4 -17 -12 -23 -18 -15 -19 -7 -5 21 7 13 7 19 0
19 -5 0 -10 -7 -10 -16 0 -8 -5 -12 -10 -9 -6 4 -7 11 -4 17 5 7 2 8 -6 3 -9
-6 -11 -4 -5 5 6 9 4 11 -5 5 -9 -6 -11 -4 -5 4 6 10 3 11 -13 2 -14 -7 -23
-8 -27 -1 -4 6 -11 7 -17 4 -14 -9 13 -25 33 -19 9 3 16 -1 16 -10 0 -12 -16
-14 -44 -6 -2 1 -5 0 -6 -1 -2 -2 -12 3 -21 11 -26 22 -45 -2 -23 -27 18 -19
52 -23 75 -8 7 4 16 5 19 2 4 -3 1 -6 -6 -6 -7 0 -9 -5 -6 -11 5 -6 12 -4 22
8 8 10 12 12 8 6 -3 -8 -1 -11 7 -10 7 2 9 2 4 -1 -4 -2 -2 -8 5 -13 12 -7 11
-9 -1 -9 -12 0 -12 -2 -1 -9 9 -6 10 -11 2 -15 -6 -4 -11 -2 -11 5 0 7 -7 4
-16 -7 -8 -10 -12 -12 -8 -4 5 10 -1 8 -16 -5 -13 -11 -20 -14 -15 -6 6 10 4
12 -6 6 -12 -7 -12 -6 -1 7 11 14 11 16 0 14 -7 -1 -19 -6 -27 -10 -9 -6 -12
-5 -8 1 3 5 0 10 -8 10 -8 0 -15 -4 -15 -9 0 -4 5 -8 12 -8 6 0 8 -3 4 -7 -4
-4 -16 3 -26 17 l-19 25 -23 -25 -23 -24 23 18 c28 24 42 13 18 -13 -19 -21
-13 -46 10 -37 8 3 13 2 13 -2 -1 -4 -1 -14 0 -22 1 -13 2 -13 11 0 6 9 10 10
10 3 0 -6 -5 -15 -10 -18 -6 -4 -7 -11 -4 -17 5 -7 2 -8 -7 -3 -11 7 -12 6 -2
-7 7 -8 10 -18 6 -22 -4 -4 -1 -5 7 -3 8 2 12 2 8 0 -13 -8 -9 -20 7 -20 8 0
11 5 8 11 -4 6 1 5 10 -3 20 -16 22 -25 5 -16 -7 4 -5 0 5 -8 12 -10 14 -17 8
-22 -6 -3 -11 0 -11 7 0 9 -3 9 -10 -2 -9 -13 -10 -13 -10 0 0 13 -1 13 -10 0
-9 -13 -10 -13 -10 0 0 13 -2 13 -9 0 -6 -8 -7 -18 -4 -24 4 -5 1 -6 -7 -1 -8
5 -18 1 -27 -10 -7 -11 -13 -14 -13 -9 0 6 -7 11 -16 11 -14 0 -14 -2 2 -15
18 -14 18 -14 -1 -8 -11 4 -16 4 -12 0 4 -4 -5 -20 -20 -36 -20 -21 -24 -31
-15 -40 9 -9 16 -8 30 5 10 9 22 14 27 10 4 -5 5 -2 0 6 -5 10 -4 12 4 7 6 -4
9 -12 6 -17 -4 -5 0 -9 7 -9 9 0 9 -3 -2 -10 -8 -5 -10 -10 -4 -10 15 0 13
-26 -3 -28 -7 -1 -20 -3 -28 -4 -8 -1 -12 -5 -9 -10 3 -4 -3 -5 -13 -2 -15 5
-16 4 -3 -5 11 -8 11 -11 3 -12 -7 -1 -19 -2 -25 -3 -7 -1 -19 3 -27 8 -12 9
-13 8 -6 -3 5 -8 4 -12 -1 -8 -5 3 -10 -13 -10 -35 -1 -25 2 -34 7 -26 7 10 9
10 10 -2 1 -8 1 -18 0 -22 0 -5 4 -8 10 -8 6 0 8 9 4 23 -5 19 -5 20 5 4 6 -9
15 -15 21 -12 5 4 12 -1 15 -9 3 -9 10 -13 16 -10 5 3 7 12 4 20 -3 7 0 16 6
20 7 5 8 2 3 -6 -5 -9 -4 -11 4 -6 7 4 10 2 9 -4 -2 -7 5 -14 15 -15 14 -3 15
0 8 9 -11 13 -5 26 12 26 6 0 7 -3 4 -6 -3 -4 -2 -16 4 -27 8 -14 8 -18 0 -13
-6 4 -11 1 -12 -6 0 -10 -2 -11 -6 0 -4 10 -8 10 -19 1 -8 -7 -17 -9 -21 -6
-3 4 -13 1 -21 -6 -11 -8 -14 -8 -9 0 4 6 3 14 -3 18 -5 3 -10 -1 -10 -9 0 -9
-4 -16 -10 -16 -5 0 -7 7 -4 15 5 11 2 13 -10 9 -9 -3 -13 -11 -9 -17 4 -6 1
-7 -8 -1 -8 5 -21 9 -29 9 -8 0 -21 4 -29 9 -8 5 -16 4 -21 -4 -5 -8 -9 -7
-13 4 -4 9 -12 16 -18 16 -8 0 -7 -6 2 -17 13 -16 12 -17 -3 -4 -13 10 -18 10
-18 2 0 -8 -6 -6 -16 4 -14 13 -19 14 -25 3 -7 -10 -9 -10 -9 2 0 9 -9 16 -20
17 -11 1 -18 -2 -15 -7 3 -5 -4 -7 -15 -5 -30 6 -42 16 -36 30 2 7 -2 16 -10
19 -12 5 -14 1 -9 -17 5 -17 4 -19 -4 -7 -9 12 -11 13 -11 1 0 -22 -13 -4 -15
21 -1 12 -6 23 -12 25 -7 3 -10 -6 -9 -20 3 -25 -14 -31 -31 -12 -4 4 -2 5 6
0 9 -5 12 -3 9 6 -3 8 -14 13 -25 11 -16 -2 -20 3 -20 21 0 13 -9 33 -18 45
-17 19 -20 19 -42 5 -12 -8 -23 -11 -23 -7 0 5 -5 2 -11 -6 -7 -10 -9 -11 -7
-2 2 8 7 13 11 12 5 -1 18 5 30 13 21 13 25 13 48 -7 14 -12 23 -28 21 -36 -3
-9 5 -5 17 7 21 23 28 39 12 29 -5 -4 -17 -3 -26 0 -14 6 -13 9 6 30 24 26 10
34 -15 9 -20 -20 -32 -19 -15 2 12 14 12 16 -2 11 -9 -3 -22 -2 -30 4 -12 8
-12 9 1 5 8 -2 23 0 32 4 10 6 27 5 42 -2 l26 -12 -22 -19 c-12 -10 -18 -21
-14 -26 4 -4 13 1 21 11 11 16 13 15 13 -8 0 -14 -5 -28 -10 -31 -6 -4 -5 -10
3 -15 23 -14 25 -11 24 42 -1 44 -4 53 -28 67 -15 9 -27 22 -27 28 0 7 17 -4
37 -22 43 -39 48 -41 50 -15 1 12 -3 18 -11 15 -7 -3 -24 5 -37 16 -20 17 -20
19 -3 11 12 -6 26 -6 35 -1 7 5 23 7 34 4 20 -5 20 -5 1 10 -10 9 -23 13 -29
9 -6 -3 -7 -1 -3 5 4 7 3 12 -2 12 -5 0 -15 11 -22 25 -7 13 -17 22 -22 19 -4
-3 -8 0 -8 5 0 18 8 13 51 -30 22 -22 44 -38 47 -34 4 4 -3 15 -15 25 -12 9
-19 20 -16 24 4 3 -2 6 -13 6 -15 0 -16 2 -4 9 10 7 19 2 33 -21 10 -17 21
-28 24 -24 3 3 -2 17 -11 31 -9 14 -14 30 -11 35 3 5 -3 13 -12 19 -10 6 -13
11 -8 11 6 0 3 5 -5 10 -8 5 -10 10 -4 10 7 0 19 -10 27 -23 12 -19 22 -23 58
-20 24 2 52 4 61 4 15 0 15 3 6 19 -9 14 -14 16 -20 7 -4 -6 -25 -12 -48 -13
-35 -1 -43 3 -57 27 -10 16 -21 29 -26 29 -4 0 -5 -4 -2 -10 3 -5 1 -10 -4
-10 -15 0 -14 17 1 26 6 4 17 -1 25 -12 8 -10 22 -18 31 -17 9 1 11 0 5 -3
-20 -9 -15 -23 7 -21 11 1 19 6 16 12 -2 7 7 11 25 10 15 -1 30 4 33 11 3 9
-7 11 -41 8 -41 -3 -44 -2 -27 10 10 8 16 18 12 22 -5 4 -16 -2 -26 -14 l-19
-22 -11 26 c-15 31 5 74 51 113 37 31 52 33 52 7 0 -10 9 -23 20 -27 29 -11
32 -11 32 6 0 10 -7 14 -21 10 -12 -3 -16 -2 -9 1 8 4 5 13 -9 30 -21 23 -23
23 -47 7 -14 -9 -34 -24 -44 -34 -17 -16 -22 -16 -42 -3 -12 8 -25 11 -30 7
-4 -5 -5 -2 -1 5 7 11 12 11 29 -1 20 -13 25 -12 58 15 19 15 44 30 55 32 10
2 24 5 29 6 6 1 12 1 15 0 21 -8 40 -6 40 3 0 8 3 8 12 -1 8 -8 16 -8 32 0 27
15 48 19 40 7 -6 -11 10 -12 20 -1 11 10 30 9 39 -3 6 -7 10 -6 14 3 4 10 9 9
19 -5 13 -17 15 -17 29 1 9 12 15 15 15 7 0 -11 3 -11 16 0 13 10 17 10 24 -1
9 -14 24 -8 26 11 2 16 4 19 9 19 3 0 4 -4 3 -10z m-103 -20 c3 -5 1 -10 -4
-10 -6 0 -11 5 -11 10 0 6 2 10 4 10 3 0 8 -4 11 -10z m-320 -20 c-3 -5 -12
-10 -18 -10 -7 0 -6 4 3 10 19 12 23 12 15 0z m713 -14 c14 3 21 0 17 -6 -3
-5 -4 -10 -1 -10 2 0 12 -3 22 -7 11 -4 15 -3 11 4 -5 7 0 9 13 6 11 -3 17 -9
14 -14 -3 -5 2 -9 11 -9 10 0 14 5 10 13 -4 6 0 4 8 -5 7 -10 22 -16 33 -14
10 2 28 0 39 -5 18 -7 18 -8 2 -8 -10 -1 -16 -5 -13 -10 3 -5 19 -8 36 -7 41
3 59 -9 41 -26 -8 -8 -11 -8 -7 -1 7 13 -12 12 -33 -1 -10 -7 -12 -5 -6 3 6
10 3 11 -14 2 -16 -9 -20 -9 -17 1 1 7 1 9 -2 5 -2 -4 -10 0 -18 10 -13 17
-14 17 -8 -2 5 -16 4 -17 -4 -5 -6 8 -8 18 -6 22 3 4 0 8 -5 8 -14 0 -14 -6
-1 -31 7 -13 7 -19 0 -19 -9 0 -14 17 -13 48 1 7 -2 11 -5 8 -3 -4 -15 0 -26
7 -12 7 -31 12 -43 11 -13 -1 -23 2 -23 7 0 4 -9 7 -20 6 -22 -1 -25 -8 -10
-23 7 -7 6 -11 -3 -11 -8 0 -14 6 -15 14 -1 7 -3 19 -4 26 -1 8 -7 14 -14 14
-9 0 -9 -6 2 -22 17 -26 6 -42 -11 -18 -11 15 -12 14 -10 -10 2 -15 -1 -27 -7
-27 -5 0 -6 10 -2 22 6 21 6 21 -10 5 -20 -19 -32 -21 -41 -7 -4 6 1 7 12 3
10 -3 15 -3 12 1 -4 4 -19 9 -35 11 -16 2 -23 1 -15 -2 11 -5 11 -7 0 -14 -12
-7 -12 -9 0 -9 11 0 9 -4 -5 -15 -13 -10 -14 -13 -3 -10 9 3 22 -1 29 -10 8
-9 8 -15 2 -15 -6 0 -14 5 -17 10 -4 6 -12 7 -18 3 -7 -4 -15 -8 -19 -9 -5 -1
-11 -2 -15 -3 -4 0 -2 -6 5 -13 7 -7 12 -17 12 -22 -1 -6 -9 -1 -19 12 -12 13
-21 18 -23 10 -2 -6 -12 -12 -21 -14 -14 -2 -15 1 -6 17 5 11 14 17 19 14 5
-3 11 -1 15 5 4 6 10 8 15 5 10 -6 25 14 25 36 0 20 25 50 35 44 5 -3 12 0 16
6 4 7 3 9 -4 5 -6 -3 -13 -2 -16 3 -4 5 2 8 11 6 10 -2 23 -4 28 -4 6 -1 3 -6
-5 -11 -13 -9 -13 -11 0 -19 14 -10 50 12 48 28 -3 28 3 33 25 19 12 -8 32
-13 45 -12z m-748 -7 c0 -4 -4 -11 -10 -14 -5 -3 -10 -1 -10 5 0 6 -5 8 -12 4
-6 -4 -8 -3 -5 3 7 11 37 13 37 2z m445 1 c4 -6 10 -8 15 -5 5 3 11 1 15 -5 4
-6 11 -7 17 -4 6 4 8 3 5 -3 -12 -19 -77 -5 -77 18 0 12 17 12 25 -1z m94 -3
c8 -10 7 -14 -2 -14 -8 0 -14 6 -14 14 0 7 1 13 2 13 2 0 8 -6 14 -13z m-622
-22 c0 -8 -4 -12 -9 -9 -5 3 -6 10 -3 15 9 13 12 11 12 -6z m870 -10 c30 2 66
-31 58 -54 -6 -20 21 -25 43 -8 8 6 12 6 12 -1 0 -12 48 -13 56 0 3 5 11 4 19
-2 10 -8 17 -6 29 11 13 19 16 20 21 6 4 -8 13 -13 21 -10 8 3 14 0 14 -6 0
-6 6 -11 14 -11 7 0 19 -7 26 -15 11 -13 15 -13 21 -3 7 11 9 11 9 0 0 -7 5
-10 12 -6 6 4 8 3 4 -4 -3 -6 -2 -13 4 -17 6 -4 7 -11 4 -17 -5 -7 -2 -8 5 -4
7 5 10 15 7 25 -5 14 -4 14 7 -1 8 -10 17 -15 20 -11 4 3 8 1 8 -5 3 -26 4
-31 12 -38 4 -4 7 -2 7 4 0 7 5 12 10 12 6 0 9 -3 8 -7 -2 -5 0 -9 5 -10 4 -2
16 -12 27 -23 11 -11 27 -20 35 -20 9 0 15 -9 15 -22 0 -19 2 -20 10 -8 8 12
10 12 10 1 0 -11 3 -11 16 -1 8 8 14 9 13 4 0 -5 2 -19 6 -32 6 -17 11 -20 20
-12 9 8 15 8 20 0 3 -6 11 -7 17 -4 7 4 8 2 4 -5 -6 -9 -11 -9 -22 0 -11 9
-14 8 -14 -6 0 -15 -2 -16 -17 -4 -14 12 -16 12 -8 0 5 -9 4 -12 -2 -8 -6 4
-9 -4 -7 -19 2 -24 1 -24 -18 -12 -24 16 -35 73 -13 64 9 -3 12 0 8 10 -4 12
-8 12 -21 2 -13 -11 -14 -11 -7 1 5 9 4 12 -3 8 -6 -4 -9 0 -8 10 2 10 1 12
-1 5 -3 -7 -8 -10 -13 -7 -5 3 -7 12 -3 20 7 21 -12 19 -28 -2 -13 -17 -12
-17 6 -4 19 14 19 14 3 -4 -19 -21 -37 -13 -20 8 9 10 8 18 -3 33 -15 19 -15
19 -9 -1 4 -14 3 -16 -4 -7 -7 11 -10 11 -15 -2 -3 -8 -2 -18 3 -21 6 -4 10
-11 10 -18 0 -6 -6 -2 -14 8 -8 11 -12 23 -10 27 3 4 -3 5 -12 1 -14 -5 -16
-3 -11 11 5 12 3 15 -6 11 -6 -4 -3 1 8 11 16 14 17 16 3 11 -11 -4 -17 -2
-15 6 1 7 -6 11 -17 9 -14 -3 -17 1 -12 13 3 10 2 14 -5 10 -6 -4 -8 -14 -5
-22 3 -8 2 -12 -2 -9 -4 2 -14 1 -22 -5 -13 -7 -13 -9 0 -9 13 0 13 -1 0 -10
-11 -7 -11 -10 -2 -10 7 0 10 -4 7 -10 -10 -16 -22 -12 -27 8 -5 19 -17 23
-75 23 -18 0 -33 5 -33 11 0 6 3 8 7 5 3 -4 17 0 29 8 21 14 24 13 37 -5 8
-11 17 -17 20 -13 4 3 -1 11 -9 18 -15 11 -15 12 0 12 9 0 16 -4 16 -9 0 -5 5
-6 11 -2 8 4 7 9 -2 14 -10 7 -10 12 -1 23 10 12 9 16 -4 21 -9 3 -21 3 -26
-1 -7 -4 -8 -1 -3 7 6 9 4 11 -5 5 -8 -5 -11 -4 -6 3 3 6 -1 9 -11 7 -10 -1
-17 -8 -16 -14 2 -6 -2 -11 -7 -11 -5 0 -10 6 -10 13 0 8 -4 7 -10 -3 -9 -13
-10 -13 -10 0 -1 12 -3 11 -11 -3 -7 -12 -15 -15 -22 -9 -7 4 -21 8 -32 8 -11
-1 -23 4 -27 9 -5 6 -8 6 -8 -2 0 -6 -9 -10 -20 -8 -10 2 -30 -5 -44 -16 -30
-24 -45 -25 -19 -1 10 9 12 13 3 7 -13 -9 -13 -8 -2 7 8 9 21 14 30 11 11 -3
13 -2 6 4 -6 4 -10 18 -9 30 1 12 -3 19 -8 16 -6 -3 -7 -1 -3 5 4 6 -3 9 -19
8 -16 -2 -22 1 -18 8 4 6 -2 4 -13 -4 -30 -22 -30 -24 -9 -16 11 4 16 3 10 -1
-5 -5 -23 -19 -39 -33 -16 -14 -26 -18 -22 -10 5 8 -4 2 -18 -15 -25 -28 -26
-28 -11 -3 9 14 12 28 8 31 -9 6 -40 -14 -41 -26 -2 -21 -11 -31 -19 -22 -12
15 -36 18 -27 4 5 -8 3 -9 -6 -4 -8 5 -11 4 -7 -3 9 -14 -3 -43 -14 -36 -5 3
-7 10 -4 15 3 5 -1 6 -9 3 -10 -4 -16 -1 -16 7 -1 9 -4 8 -11 -3 -5 -10 -15
-18 -21 -18 -7 0 -7 4 1 13 8 10 7 14 -4 14 -8 0 -12 -3 -10 -7 2 -3 -5 -7
-17 -7 -14 -1 -18 3 -14 13 3 9 2 12 -4 9 -6 -4 -9 -14 -8 -23 2 -9 -2 -16 -9
-15 -8 2 -10 -4 -6 -14 4 -11 8 -12 11 -5 2 8 9 9 21 2 10 -5 22 -6 26 -2 5 4
5 1 1 -5 -5 -9 -2 -11 7 -7 8 3 18 0 23 -7 5 -9 2 -10 -9 -6 -9 3 -19 1 -23
-5 -5 -7 -2 -8 7 -3 12 7 12 6 1 -7 -9 -12 -10 -18 -2 -23 6 -4 9 -14 6 -22
-4 -9 -2 -11 6 -7 7 4 8 3 4 -4 -9 -16 7 -15 22 0 9 10 16 8 29 -5 16 -16 16
-18 0 -34 -14 -14 -19 -15 -29 -4 -11 10 -10 11 5 6 10 -4 17 -2 17 5 0 6 -4
8 -10 5 -5 -3 -10 -1 -10 5 0 7 7 9 16 6 8 -3 12 -2 9 4 -11 17 -25 11 -37
-16 l-12 -26 -23 28 c-13 16 -21 21 -17 12 3 -10 1 -18 -5 -18 -6 0 -10 5 -9
11 4 15 -30 20 -39 6 -3 -7 -3 -9 2 -5 9 9 35 -9 35 -23 0 -5 -12 -1 -27 8
-15 10 -24 13 -20 6 5 -8 1 -11 -13 -8 -11 2 -20 0 -20 -6 0 -5 6 -9 13 -9 8
0 7 -4 -3 -10 -13 -9 -13 -10 0 -10 12 0 13 -2 1 -9 -11 -7 -11 -9 0 -13 8 -3
11 -9 6 -14 -4 -4 -15 2 -23 15 l-16 22 -24 -22 c-13 -12 -27 -19 -31 -15 -9
9 85 96 100 93 7 -1 11 3 10 9 -1 7 10 10 27 9 51 -4 57 20 17 60 -39 39 -41
44 -25 62 11 14 1 36 -13 27 -5 -3 -8 0 -7 8 2 8 -4 12 -14 10 -21 -3 -23 9
-6 26 8 8 15 9 25 0 10 -8 18 -6 34 8 17 16 19 16 13 1 -3 -10 -1 -17 5 -17 7
0 11 -8 9 -17 -3 -19 19 -25 38 -11 7 5 17 2 24 -7 10 -12 16 -13 26 -4 12 9
12 14 1 23 -7 6 -10 10 -8 9 2 -2 10 2 17 8 10 9 15 7 20 -4 5 -13 9 -14 24
-5 17 11 17 13 3 24 -9 6 -18 19 -19 28 -2 14 0 15 12 5 8 -6 17 -9 21 -6 3 4
12 2 19 -4 14 -11 38 -3 30 10 -3 4 9 7 27 7 26 -1 31 2 29 18 -3 16 -1 18 10
9 7 -6 23 -9 35 -8z m-896 -28 c-10 -9 -11 -8 -5 6 3 10 9 15 12 12 3 -3 0
-11 -7 -18z m75 8 c10 -8 15 -14 9 -14 -5 0 -19 6 -29 14 -11 8 -15 15 -10 15
6 0 19 -7 30 -15z m-98 -26 c-3 -8 -7 -3 -11 10 -4 17 -3 21 5 13 5 -5 8 -16
6 -23z m46 7 c-3 -9 -10 -16 -16 -16 -5 0 -6 -5 -2 -12 4 -7 3 -8 -4 -4 -9 5
-7 14 5 31 20 26 27 26 17 1z m-118 -12 c1 -9 0 -13 -4 -10 -3 4 -7 14 -8 22
-1 9 0 13 4 10 3 -4 7 -14 8 -22z m1013 9 c7 -13 3 -25 -15 -47 -30 -34 -18
-61 14 -33 10 9 22 14 25 10 4 -3 7 -2 7 3 0 5 18 10 40 10 22 1 40 -3 40 -7
0 -5 5 -9 11 -9 5 0 7 6 3 13 -6 9 -5 9 8 0 8 -7 18 -9 22 -5 4 4 20 7 34 7
19 0 26 5 24 15 -3 12 0 12 15 -1 10 -9 24 -14 31 -12 15 6 15 -7 1 -27 -10
-13 -10 -13 -6 0 3 10 -3 15 -20 16 -19 2 -21 0 -11 -10 7 -6 11 -10 9 -9 -2
1 -13 -3 -25 -9 -21 -12 -27 -14 -45 -17 -5 0 -8 -12 -7 -26 2 -13 -1 -22 -5
-19 -5 3 -9 -1 -10 -8 0 -10 -2 -10 -6 0 -7 18 -23 4 -17 -16 5 -14 4 -15 -5
-2 -9 13 -15 8 -13 -12 1 -3 -6 -12 -16 -20 -15 -12 -16 -11 -3 5 14 18 12 21
-13 11 -8 -3 -12 -12 -9 -20 3 -8 0 -14 -7 -14 -6 0 -8 -5 -4 -12 6 -10 4 -10
-8 0 -13 10 -16 9 -21 -9 -3 -12 -10 -18 -16 -14 -6 3 -11 0 -11 -7 0 -12 -36
-42 -52 -43 -4 0 -13 -6 -19 -12 -7 -7 -19 -13 -26 -13 -6 0 -16 -8 -22 -17
-8 -15 -12 -16 -35 -3 -14 7 -24 16 -21 19 3 2 11 -1 17 -7 9 -9 16 -8 29 4 9
8 26 17 36 18 10 2 17 10 15 20 -2 9 1 16 5 15 20 -3 30 2 30 16 0 8 -4 15 -9
15 -4 0 -8 -7 -8 -16 0 -8 -5 -12 -10 -9 -6 4 -8 11 -5 16 3 5 0 7 -7 6 -7 -2
-9 -2 -5 1 4 2 3 10 -4 18 -8 10 -8 14 0 14 6 0 11 -5 11 -11 0 -5 5 -7 11 -3
8 5 6 10 -5 16 -21 12 -37 2 -29 -20 5 -14 3 -15 -7 -5 -19 18 4 42 37 39 31
-4 53 -30 48 -57 -2 -11 0 -17 6 -14 5 4 7 11 4 16 -5 8 7 13 26 11 4 -1 6 9
5 21 0 12 4 21 11 20 8 -2 10 4 6 15 -5 14 -3 13 11 -3 10 -11 15 -15 12 -8
-4 6 2 17 11 23 16 10 15 10 -4 5 -17 -5 -21 -2 -18 12 2 10 4 20 4 23 1 3 6
-2 11 -10 8 -13 10 -13 10 -1 0 11 4 9 15 -5 11 -14 14 -15 9 -2 -7 20 20 38
59 38 9 0 8 3 -2 9 -11 7 -11 10 0 17 8 5 18 9 23 9 5 0 11 7 13 15 4 13 3 13
-6 0 -10 -13 -11 -13 -11 0 0 10 -3 11 -8 4 -8 -12 -42 -15 -42 -4 0 4 -13 6
-30 5 -20 -2 -27 1 -23 9 3 6 -3 3 -14 -7 -16 -14 -22 -15 -26 -5 -3 7 -6 8
-6 2 -1 -6 6 -17 14 -24 8 -7 15 -17 15 -23 0 -6 -7 -2 -15 9 -15 19 -15 19
-9 -1 5 -16 4 -17 -5 -5 -6 8 -11 11 -11 6 0 -5 -6 -3 -13 3 -8 6 -18 7 -22 3
-5 -4 -5 -1 -1 6 4 6 2 12 -3 12 -6 0 -11 -4 -11 -10 0 -5 -5 -10 -10 -10 -6
0 -4 11 5 23 14 22 14 25 -7 43 l-23 19 19 -22 c18 -22 18 -22 -3 -20 -12 1
-21 6 -21 11 0 5 -7 1 -16 -10 -8 -10 -12 -13 -8 -5 5 10 3 12 -5 7 -9 -6 -9
-11 -1 -21 8 -9 8 -15 0 -20 -9 -6 -11 -2 -14 25 -1 10 102 99 116 100 4 0 11
-8 17 -17z m-849 -3 c8 -5 11 -10 5 -10 -5 0 -17 5 -25 10 -8 5 -10 10 -5 10
6 0 17 -5 25 -10z m-112 -36 c1 -1 -6 -4 -18 -7 -11 -3 -23 0 -27 5 -4 7 -1 8
7 3 10 -6 12 -4 6 10 -6 16 -4 16 11 4 10 -7 19 -14 21 -15z m92 15 c0 -5 5
-7 12 -3 7 4 8 3 4 -5 -6 -9 -11 -9 -22 0 -17 14 -18 19 -4 19 6 0 10 -5 10
-11z m-60 -25 c0 -8 -4 -14 -8 -14 -4 0 -8 9 -8 19 0 11 4 17 8 15 4 -3 8 -12
8 -20z m790 6 c-6 -11 -13 -20 -16 -20 -2 0 0 9 6 20 6 11 13 20 16 20 2 0 0
-9 -6 -20z m-973 -5 c0 -8 -4 -12 -9 -9 -4 3 -8 9 -8 15 0 5 4 9 8 9 5 0 9 -7
9 -15z m53 11 c0 -2 -8 -10 -17 -17 -16 -13 -17 -12 -4 4 13 16 21 21 21 13z
m162 -18 c-7 -7 -12 -8 -12 -2 0 14 12 26 19 19 2 -3 -1 -11 -7 -17z m38 -8
c-20 -13 -33 -13 -25 0 3 6 14 10 23 10 15 0 15 -2 2 -10z m-179 -14 c-7 -8
-20 -13 -29 -11 -9 1 -26 -5 -37 -14 -20 -16 -20 -16 -2 6 11 12 27 20 38 18
10 -2 21 0 24 6 4 5 9 9 12 9 3 0 0 -6 -6 -14z m44 -14 c-3 -3 -11 0 -18 7 -9
10 -8 11 6 5 10 -3 15 -9 12 -12z m95 8 c8 -5 12 -11 10 -14 -3 -2 -14 2 -24
10 -22 15 -10 19 14 4z m751 -4 c1 -6 1 -14 1 -18 -1 -3 5 -9 13 -12 14 -5 30
10 30 29 0 10 23 15 38 7 4 -2 3 -10 -3 -17 -13 -16 -1 -25 26 -21 10 2 24 -1
30 -6 33 -26 78 -12 54 17 -18 21 -5 24 77 13 16 -2 12 -35 -4 -35 -8 0 -12 6
-9 13 3 7 -2 11 -12 9 -9 -1 -20 2 -23 7 -4 6 -9 6 -13 -1 -4 -6 -2 -11 4 -11
6 0 9 -4 5 -9 -3 -5 0 -13 6 -17 7 -4 9 -3 5 4 -3 6 -1 14 5 17 7 5 10 0 7
-11 -2 -12 -12 -19 -25 -19 -12 0 -28 -6 -34 -12 -7 -7 -10 -13 -5 -13 4 0 -2
-13 -14 -30 -12 -16 -18 -30 -14 -30 5 0 3 -5 -4 -12 -9 -9 -15 -8 -27 8 -24
30 -37 54 -28 53 19 -3 23 2 14 19 -7 14 -5 17 17 18 15 1 21 -1 14 -3 -6 -3
-9 -10 -6 -15 5 -7 2 -8 -7 -3 -12 8 -12 6 0 -9 11 -13 11 -16 1 -14 -7 2 -14
-3 -15 -10 -2 -7 -1 -8 2 -2 3 6 11 6 22 1 14 -8 16 -4 16 27 -1 34 -4 37 -33
39 -18 1 -32 -3 -32 -8 0 -6 -4 -8 -10 -4 -5 3 -7 12 -4 19 3 8 1 17 -5 21 -7
3 -8 0 -5 -9 6 -14 -5 -21 -28 -17 -5 0 -8 -3 -8 -9 0 -16 -46 -41 -64 -34
-13 5 -14 9 -5 20 6 8 16 14 21 14 6 0 5 -7 -2 -15 -9 -10 -9 -15 -1 -15 6 0
11 5 11 11 0 5 4 8 9 4 5 -3 13 0 17 6 5 8 2 10 -7 5 -8 -4 -7 -1 3 6 14 12
10 14 -33 14 -27 0 -45 -3 -41 -6 12 -9 13 -32 1 -25 -6 4 -4 -4 5 -17 9 -14
14 -27 11 -30 -3 -3 1 -11 10 -18 12 -10 18 -10 30 0 8 7 13 16 10 20 -3 4 3
16 13 27 9 10 13 12 7 4 -8 -12 -7 -13 5 -7 8 4 6 0 -4 -8 -11 -9 -15 -16 -9
-16 7 0 15 5 18 10 4 7 13 6 27 -1 16 -9 19 -8 13 2 -5 8 -4 10 3 5 19 -11 14
-28 -6 -22 -12 4 -26 -2 -38 -15 -19 -21 -19 -21 9 -45 16 -13 23 -24 16 -24
-9 0 -9 -3 0 -14 10 -12 9 -14 -6 -12 -10 2 -24 -6 -31 -16 -11 -15 -17 -16
-27 -8 -8 7 -19 9 -26 5 -7 -5 0 -18 22 -37 19 -17 28 -27 21 -24 -6 4 -19 0
-28 -8 -9 -9 -20 -14 -25 -11 -5 4 -9 2 -9 -4 0 -5 -9 -9 -19 -8 -17 1 -18 3
-4 24 9 13 11 23 7 23 -5 0 -2 5 6 10 13 8 13 10 1 10 -11 0 -9 4 5 15 18 15
18 15 0 8 -14 -4 -17 -3 -12 6 5 7 15 10 23 7 8 -3 11 -1 8 4 -4 6 2 7 12 4
15 -5 16 -4 3 6 -13 11 -13 11 0 7 9 -3 24 1 35 9 10 8 15 15 9 15 -63 9 -111
-2 -98 -23 5 -7 2 -8 -6 -3 -9 6 -11 4 -5 -5 5 -9 4 -11 -4 -6 -6 4 -9 11 -6
16 3 4 -2 10 -10 13 -8 4 -12 1 -10 -6 3 -7 -4 -23 -15 -37 -14 -19 -18 -21
-16 -7 1 9 7 22 13 28 6 6 9 18 6 26 -5 12 -1 14 14 9 13 -4 26 1 38 14 18 19
18 21 0 40 -11 12 -26 18 -35 15 -10 -3 -20 0 -23 7 -6 17 -4 34 5 31 3 -1 9
4 11 12 9 21 -20 40 -68 44 -5 1 -3 5 5 11 9 5 19 5 27 -2 9 -7 17 -7 26 0 10
9 19 8 33 -3 19 -12 47 -7 45 9 -3 19 2 23 29 23 17 0 31 -5 31 -11z m-984
-10 c0 -15 -21 -16 -34 -1 -4 4 -3 5 4 1 6 -3 14 -2 18 4 8 14 12 13 12 -4z
m158 -6 c-3 -5 -12 -10 -18 -10 -7 0 -6 4 3 10 19 12 23 12 15 0z m57 -9 c-2
-10 5 -12 25 -7 23 5 25 4 10 -5 -20 -12 -52 -5 -42 10 3 5 -5 12 -17 14 -20
5 -20 5 2 3 15 -1 24 -7 22 -15z m-155 -13 c0 -13 -1 -17 -4 -10 -3 6 -10 9
-16 5 -7 -4 -6 1 2 10 17 21 17 21 18 -5z m123 -3 c0 -8 -2 -15 -4 -15 -2 0
-6 7 -10 15 -3 8 -1 15 4 15 6 0 10 -7 10 -15z m1305 -5 c-2 -12 5 -30 18 -43
12 -12 21 -25 20 -29 -2 -5 2 -9 7 -9 6 -1 14 -2 19 -3 5 0 13 -4 17 -8 4 -4
12 0 19 8 10 15 14 13 33 -11 12 -15 22 -32 22 -36 0 -13 -18 -11 -26 3 -4 7
-3 8 4 4 8 -5 10 -1 5 10 -5 15 -7 15 -15 0 -5 -9 -14 -16 -20 -16 -7 0 -6 5
2 15 9 10 9 15 1 15 -6 0 -11 -6 -11 -12 0 -9 -4 -8 -10 2 -6 10 -10 11 -10 3
0 -7 -5 -13 -11 -13 -5 0 -8 4 -4 9 3 5 1 12 -4 15 -5 4 -12 2 -16 -4 -3 -5
-11 -10 -16 -10 -6 0 -7 6 -2 13 11 18 12 37 2 37 -9 0 -13 -15 -10 -34 1 -5
-5 -6 -13 -3 -9 4 -18 1 -22 -5 -5 -7 -2 -8 7 -3 12 8 12 6 0 -8 -9 -11 -10
-17 -2 -17 6 0 11 5 11 10 0 6 4 10 8 10 5 0 8 -18 7 -39 -1 -23 3 -39 9 -38
13 3 15 -26 1 -36 -6 -5 -3 -7 8 -3 20 6 22 -4 5 -23 -9 -10 -9 -12 -1 -7 6 3
14 2 18 -4 4 -6 11 -8 16 -5 5 4 9 1 9 -5 0 -7 -6 -10 -14 -7 -15 6 -16 -17
-1 -30 4 -4 5 -2 1 5 -8 13 6 17 18 5 4 -4 -3 -15 -16 -25 -14 -11 -17 -17 -8
-16 8 2 19 8 23 13 5 6 7 4 4 -5 -2 -8 -10 -14 -16 -13 -6 2 -11 -2 -11 -7 0
-17 18 -11 33 10 8 11 17 17 20 13 4 -3 -8 -17 -25 -30 -18 -12 -27 -23 -20
-23 7 0 12 -5 12 -11 0 -5 -6 -7 -12 -3 -9 5 -9 3 1 -9 7 -9 18 -14 24 -10 6
4 7 1 2 -7 -5 -8 -1 -18 10 -27 17 -12 17 -14 -2 -12 -4 0 -11 -8 -15 -18 -6
-12 -6 -9 -3 10 4 17 2 26 -4 23 -19 -12 -31 33 -33 121 0 13 -4 21 -9 18 -4
-3 -6 3 -4 14 2 11 -2 25 -10 31 -8 6 -11 22 -9 36 3 18 1 23 -7 18 -7 -4 -9
-3 -5 4 3 6 2 13 -3 16 -5 3 -7 14 -4 25 3 11 -2 21 -11 24 -10 4 -13 15 -10
32 2 14 1 25 -3 24 -17 -3 -24 2 -18 11 5 8 11 7 21 -1 12 -10 17 -9 27 0 9
10 8 11 -8 6 -11 -4 -16 -3 -10 2 13 10 15 63 3 63 -5 0 -6 -10 -3 -22 6 -19
5 -21 -6 -11 -13 13 -22 46 -10 39 4 -3 13 -1 21 5 20 12 19 12 15 -11z
m-1454 -17 c13 -16 12 -17 -3 -4 -10 7 -18 15 -18 17 0 8 8 3 21 -13z m129 7
c0 -5 -5 -10 -11 -10 -5 0 -7 5 -4 10 3 6 8 10 11 10 2 0 4 -4 4 -10z m105 0
c-3 -5 -11 -10 -16 -10 -6 0 -7 5 -4 10 3 6 11 10 16 10 6 0 7 -4 4 -10z
m-164 -15 c5 4 6 -2 2 -11 -4 -11 -8 -13 -11 -6 -2 7 -8 10 -13 7 -5 -4 -6 2
-2 11 4 11 8 13 11 6 2 -7 8 -10 13 -7z m946 -1 c4 -11 8 -12 13 -4 5 8 9 8
13 -2 3 -10 -4 -14 -27 -14 -17 1 -30 4 -28 9 1 4 2 12 2 17 0 16 20 12 27 -6z
m-1047 -4 c0 -5 -5 -10 -11 -10 -5 0 -7 5 -4 10 3 6 8 10 11 10 2 0 4 -4 4
-10z m176 -7 c-2 -9 -9 -19 -17 -21 -11 -3 -11 -1 1 7 8 6 11 11 7 11 -5 0 -5
5 -2 10 9 15 14 12 11 -7z m44 7 c-8 -5 -19 -10 -25 -10 -5 0 -3 5 5 10 8 5
20 10 25 10 6 0 3 -5 -5 -10z m60 0 c-8 -5 -19 -10 -25 -10 -5 0 -3 5 5 10 8
5 20 10 25 10 6 0 3 -5 -5 -10z m1180 -18 c0 -4 -9 -8 -21 -9 -17 -2 -18 1 -9
12 12 14 30 12 30 -3z m110 2 c0 -8 -19 -13 -24 -6 -3 5 1 9 9 9 8 0 15 -2 15
-3z m-605 -24 c-1 -8 -8 -15 -15 -15 -7 0 -14 7 -15 15 -2 9 5 16 15 16 10 0
17 -7 15 -16z m-857 -15 c-3 -3 -9 2 -12 12 -6 14 -5 15 5 6 7 -7 10 -15 7
-18z m108 14 c3 -6 1 -16 -6 -22 -10 -9 -12 -8 -6 7 5 16 2 17 -21 12 -21 -5
-24 -4 -13 4 20 13 37 13 46 -1z m-63 -40 c-4 -4 -15 -4 -23 2 -12 9 -12 10 3
5 15 -5 17 -2 12 17 -5 20 -5 20 6 4 6 -11 7 -23 2 -28z m-188 21 c-3 -5 -12
-10 -18 -10 -7 0 -6 4 3 10 19 12 23 12 15 0z m82 4 c-3 -3 -12 -4 -19 -1 -8
3 -5 6 6 6 11 1 17 -2 13 -5z m213 -36 c0 -5 -5 -8 -11 -8 -5 0 -8 4 -4 9 3 5
1 12 -5 16 -5 3 -10 1 -10 -4 0 -6 -5 -11 -10 -11 -6 0 -5 8 2 19 11 18 13 18
25 3 7 -9 13 -20 13 -24z m-227 18 c3 3 4 -1 3 -10 -1 -8 -6 -19 -11 -23 -4
-5 -5 -2 0 6 6 10 4 13 -6 9 -10 -4 -15 1 -15 13 0 12 4 15 12 9 6 -6 13 -7
17 -4z m161 -1 c3 -8 1 -15 -4 -15 -6 0 -10 7 -10 15 0 8 2 15 4 15 2 0 6 -7
10 -15z m-60 -36 c-3 -5 2 -9 10 -9 9 0 16 -5 16 -10 0 -7 -7 -7 -21 0 -11 7
-18 14 -15 17 3 3 -5 14 -17 25 l-22 19 27 -17 c15 -9 25 -20 22 -25z m1404
29 c-2 -7 4 -13 12 -13 8 0 21 -4 28 -9 7 -4 16 -5 19 -2 4 3 21 -5 38 -19 42
-31 57 -34 60 -12 2 11 6 22 10 25 3 4 4 -5 2 -19 -4 -22 -2 -26 16 -25 12 1
23 7 23 14 3 24 4 26 16 14 9 -9 15 -9 27 1 14 10 14 10 3 -4 -10 -13 -10 -18
1 -28 8 -6 17 -7 21 -3 4 4 6 0 4 -8 -2 -10 4 -15 19 -14 13 1 20 -3 16 -8 -3
-6 1 -14 8 -19 10 -6 10 -9 2 -9 -10 0 -10 -6 -2 -24 8 -17 17 -22 33 -20 11
2 15 2 9 -2 -20 -9 -15 -23 7 -19 11 2 22 -1 25 -6 4 -5 12 -6 18 -2 7 4 6 0
-2 -10 -7 -9 -17 -14 -22 -11 -5 3 -9 1 -9 -5 0 -10 38 -27 53 -23 4 1 7 -5 7
-13 0 -8 5 -15 10 -15 6 0 10 -10 10 -22 0 -21 -15 -17 -15 5 -1 7 -6 11 -13
9 -7 -1 -11 3 -10 9 2 6 -3 14 -10 16 -9 3 -12 -1 -10 -12 2 -10 -2 -20 -9
-22 -7 -3 -10 5 -9 22 2 14 -1 28 -6 31 -5 3 -7 12 -5 18 3 7 0 13 -7 13 -14
0 -15 -25 -1 -46 6 -10 4 -12 -6 -7 -8 4 -6 1 4 -7 12 -10 14 -17 8 -22 -6 -3
-11 -1 -11 5 0 6 -4 9 -8 6 -4 -2 -14 0 -22 6 -12 8 -12 9 2 5 12 -4 16 -1 13
14 -5 26 -30 60 -38 52 -4 -3 1 -12 11 -20 11 -10 12 -12 2 -8 -8 4 -6 -1 4
-9 11 -9 15 -16 8 -16 -14 0 -43 41 -36 52 3 4 0 8 -7 8 -8 0 -9 3 0 13 6 8 7
18 3 22 -4 5 -2 5 5 1 7 -4 10 -14 7 -24 -5 -14 -3 -14 6 2 10 14 10 20 -1 27
-7 4 -18 4 -25 -1 -6 -6 -15 -6 -19 -2 -5 4 -5 1 0 -6 6 -11 3 -12 -14 -3 -22
12 -26 23 -14 35 11 10 11 46 0 39 -6 -3 -7 -2 -4 3 3 6 -12 10 -34 10 -21 0
-39 -4 -39 -9 0 -5 8 -6 18 -3 14 5 14 4 -2 -9 -15 -11 -22 -12 -27 -3 -4 7
-4 17 1 23 7 8 5 12 -5 12 -8 0 -12 -4 -9 -9 3 -4 0 -8 -5 -8 -6 0 -11 8 -12
18 0 11 -2 12 -6 4 -4 -10 -8 -10 -19 -1 -12 10 -12 14 -2 22 10 6 8 7 -4 3
-10 -3 -20 -1 -23 4 -4 6 -12 10 -18 10 -8 0 -8 -3 2 -9 9 -6 10 -11 2 -15
-10 -6 -15 6 -12 27 0 4 -4 7 -10 7 -6 0 -8 -8 -5 -17 4 -11 -2 -8 -14 7 -12
15 -18 18 -14 8 7 -20 -4 -23 -26 -7 -12 9 -11 10 5 5 18 -5 18 -4 3 6 -15 11
-15 13 0 25 21 16 23 16 20 1z m-1578 -2 c0 -2 -8 -10 -17 -17 -16 -13 -17
-12 -4 4 13 16 21 21 21 13z m135 -16 c3 -6 -1 -7 -9 -4 -18 7 -21 14 -7 14 6
0 13 -4 16 -10z m84 -4 c9 -11 9 -16 0 -22 -8 -4 -9 -3 -5 4 4 7 2 12 -3 12
-6 0 -11 5 -11 10 0 14 5 13 19 -4z m646 -46 c-8 -9 -12 -21 -8 -25 5 -5 0 -3
-10 4 -15 12 -17 12 -11 -3 7 -17 -11 -23 -21 -6 -3 6 -12 10 -18 10 -7 0 -3
-7 7 -15 11 -8 28 -13 38 -9 10 3 18 1 18 -4 0 -4 -13 -8 -30 -8 -16 0 -30 3
-30 7 0 4 -8 6 -18 4 -26 -5 -49 10 -28 18 10 4 14 16 12 40 -3 26 0 34 13 34
9 0 21 -4 27 -8 7 -6 16 -3 25 7 12 15 15 14 31 -6 17 -21 17 -25 3 -40z
m-848 28 c0 -13 -1 -17 -4 -10 -3 6 -10 9 -16 5 -7 -4 -6 1 2 10 17 21 17 21
18 -5z m-86 -11 c-10 -9 -11 -8 -5 6 3 10 9 15 12 12 3 -3 0 -11 -7 -18z m189
19 c0 -3 -4 -8 -10 -11 -5 -3 -10 -1 -10 4 0 6 5 11 10 11 6 0 10 -2 10 -4z
m1657 -16 c-1 -20 -8 -25 -20 -14 -7 8 3 34 13 34 5 0 8 -9 7 -20z m-1619 -15
c-3 -3 -9 2 -12 12 -6 14 -5 15 5 6 7 -7 10 -15 7 -18z m856 13 c-3 -5 -10 -6
-15 -3 -5 4 -22 -3 -38 -14 -22 -16 -28 -27 -26 -51 1 -16 -2 -30 -7 -30 -5 0
-7 -4 -3 -9 3 -6 -3 -15 -14 -20 -26 -14 -30 -14 -27 4 3 18 16 32 16 17 0 -7
5 -12 12 -12 9 0 9 3 0 12 -9 9 -7 14 6 25 16 12 15 13 -3 7 l-20 -7 20 17
c20 17 20 17 -1 7 -12 -6 -24 -7 -28 -4 -3 3 -6 1 -6 -5 0 -7 5 -12 11 -12 5
0 7 -5 4 -10 -4 -6 -11 -8 -16 -4 -6 3 -21 -6 -34 -20 -13 -14 -21 -26 -18
-26 3 0 0 -6 -7 -14 -6 -8 -17 -13 -25 -10 -9 4 -13 -3 -11 -20 1 -22 3 -24
12 -12 7 10 14 12 22 6 7 -6 10 -7 7 -3 -3 3 3 16 12 27 l18 21 -24 -20 -25
-20 20 26 c19 26 40 29 31 5 -3 -7 1 -13 8 -13 7 0 11 7 8 16 -4 13 -3 13 5 2
7 -9 12 -10 16 -2 4 6 19 9 33 7 27 -5 48 -19 23 -16 -29 4 -41 0 -34 -12 4
-6 3 -8 -4 -4 -6 3 -13 2 -17 -4 -4 -6 -10 -8 -15 -5 -5 3 -11 1 -15 -5 -4 -6
-11 -8 -16 -5 -5 4 -9 1 -9 -5 0 -7 -8 -9 -22 -5 -17 6 -20 4 -14 -10 6 -16 5
-16 -16 -3 -13 9 -22 19 -21 24 1 5 -3 15 -9 22 -8 10 -13 9 -23 -4 -9 -13
-14 -14 -19 -5 -6 9 -11 9 -22 0 -7 -6 -11 -16 -7 -23 4 -7 1 -6 -9 1 -8 7
-19 9 -23 5 -5 -4 -5 -1 -1 6 4 6 2 13 -3 13 -6 1 -17 2 -23 3 -7 0 -13 10
-13 21 0 14 7 20 23 21 37 2 40 3 56 20 28 27 56 26 67 -4 l11 -27 14 25 c12
21 14 22 12 5 -2 -11 -7 -23 -13 -27 -6 -5 -6 -8 2 -8 14 0 27 18 28 41 1 12
-6 16 -24 14 -15 -1 -32 4 -39 12 -11 11 -9 13 15 8 67 -15 93 -13 104 6 5 11
15 16 21 13 7 -5 9 -2 5 8 -7 21 3 31 18 18 9 -7 16 -6 25 5 7 8 9 15 4 15 -5
0 -3 4 4 8 16 11 72 11 66 0z m-1023 -15 c13 -16 12 -17 -3 -4 -10 7 -18 15
-18 17 0 8 8 3 21 -13z m105 5 c4 -7 3 -8 -4 -4 -7 4 -12 2 -12 -5 0 -7 -3
-10 -6 -6 -6 5 3 27 11 27 2 0 7 -5 11 -12z m44 -8 c7 -14 7 -20 0 -20 -5 0
-10 7 -10 16 0 9 -5 12 -12 8 -7 -4 -8 -3 -4 4 10 16 14 15 26 -8z m1420 9 c0
-8 5 -8 15 1 17 14 18 11 19 -40 1 -29 5 -35 23 -35 11 0 25 -4 29 -8 5 -4 0
-5 -11 -2 -16 5 -17 5 -5 -3 8 -6 18 -8 22 -6 4 3 8 0 8 -6 0 -7 -8 -9 -21 -5
-19 6 -20 5 -8 -8 8 -8 19 -14 24 -14 6 1 10 -5 10 -13 0 -8 4 -21 9 -28 4 -7
5 -16 1 -20 -3 -3 -10 -1 -14 7 -6 10 -10 9 -15 -4 -3 -10 -11 -13 -18 -9 -7
4 -6 -1 3 -12 8 -10 14 -29 13 -41 0 -13 3 -23 8 -23 6 0 8 7 5 14 -4 10 -1
13 8 10 17 -7 15 -25 -4 -40 -8 -6 -11 -16 -7 -22 10 -16 38 -2 32 15 -4 9 -2
11 6 7 7 -5 8 -3 3 6 -6 9 -4 11 5 5 9 -6 11 -4 5 6 -8 12 -6 12 8 0 20 -16
20 -18 5 -27 -7 -5 -9 -2 -4 7 4 8 1 5 -8 -5 -8 -10 -13 -22 -11 -26 3 -4 -7
-7 -20 -7 -14 0 -25 3 -25 8 0 5 -8 5 -17 2 -16 -6 -16 -5 1 12 17 17 17 20 2
31 -9 6 -15 18 -14 25 2 8 -2 13 -8 12 -12 -2 -12 26 0 45 4 7 11 10 16 7 4
-3 10 2 13 9 7 17 -16 39 -28 28 -5 -4 -5 -2 -1 5 3 6 2 15 -4 18 -8 5 -7 11
1 21 8 10 8 14 0 15 -32 4 -36 6 -33 18 1 7 -3 19 -9 27 -6 8 -8 14 -4 14 5 0
0 9 -10 20 -10 11 -13 20 -7 20 7 0 12 -5 12 -11z m141 -47 c8 -2 18 -10 22
-18 7 -13 14 -12 42 6 33 20 34 20 44 2 7 -13 7 -22 -1 -30 -9 -9 -9 -15 0
-24 7 -7 12 -18 12 -26 0 -12 -3 -12 -15 -2 -8 7 -12 16 -9 21 3 5 1 9 -4 9
-5 0 -9 7 -9 15 0 8 5 11 11 8 6 -3 7 -2 3 2 -11 12 -37 15 -37 4 0 -5 5 -9
11 -9 5 0 7 -5 3 -11 -3 -6 -9 -7 -13 -2 -3 5 -13 8 -21 8 -18 -1 -41 15 -35
24 2 4 -2 8 -10 8 -11 0 -12 -4 -4 -13 7 -8 7 -14 -1 -19 -6 -3 -8 -11 -4 -16
3 -5 10 -7 15 -4 5 4 9 1 9 -4 0 -6 -4 -11 -10 -11 -5 0 -10 -5 -10 -11 0 -5
4 -8 9 -4 5 3 13 0 17 -6 4 -7 3 -9 -2 -6 -6 3 -11 -4 -11 -15 -2 -20 -1 -20
12 -2 8 11 15 15 15 11 0 -4 9 -3 19 3 14 7 22 7 27 -2 5 -7 3 -8 -5 -3 -10 6
-11 3 -2 -14 10 -17 9 -20 -4 -15 -8 3 -12 10 -9 15 3 5 0 9 -5 9 -14 0 -14
-13 -1 -26 6 -6 5 -15 -1 -24 -10 -13 -10 -13 -6 0 3 9 -1 24 -9 35 -8 10 -14
14 -14 9 0 -6 6 -16 13 -24 9 -11 8 -11 -7 0 -11 9 -17 10 -13 3 5 -8 1 -11
-12 -8 -13 2 -18 -1 -16 -13 2 -9 4 -21 4 -26 1 -4 10 2 21 15 10 13 19 19 20
14 0 -6 -5 -16 -11 -22 -8 -8 -7 -13 2 -18 8 -6 10 -4 5 6 -4 8 -1 6 7 -4 11
-14 16 -15 20 -5 3 7 4 3 4 -9 -1 -13 -5 -23 -10 -23 -5 0 1 -9 14 -21 13 -11
17 -17 9 -13 -8 4 -12 4 -8 -1 4 -4 4 -13 -2 -19 -6 -8 -3 -12 9 -12 11 0 17
6 14 13 -3 7 -1 13 4 13 5 0 9 -8 10 -18 1 -15 -6 -19 -29 -20 -21 0 -28 3
-24 13 3 8 1 17 -4 20 -6 4 -10 1 -10 -4 0 -6 -7 -11 -15 -11 -8 0 -15 5 -15
11 0 5 6 7 13 3 9 -5 9 -4 0 6 -9 10 -7 17 10 31 22 18 22 18 2 33 -15 10 -23
11 -33 3 -7 -5 -12 -6 -11 -1 3 20 -1 35 -10 30 -5 -3 -12 2 -16 12 -8 23 -6
28 10 24 19 -4 29 16 16 32 -6 7 -8 16 -4 19 3 4 1 13 -5 20 -7 8 -9 17 -5 20
12 12 -30 48 -49 41 -15 -4 -17 -1 -14 18 3 13 5 27 5 31 1 5 5 6 10 2 5 -3
13 0 17 6 5 9 14 5 29 -12 12 -13 28 -25 36 -27z m-1750 15 c-10 -9 -11 -8 -5
6 3 10 9 15 12 12 3 -3 0 -11 -7 -18z m115 -25 c-17 -16 -18 -16 -5 5 7 12 15
20 18 17 3 -2 -3 -12 -13 -22z m104 13 c-7 -8 -20 -14 -29 -14 -13 1 -13 2 2
6 9 2 17 9 17 14 0 5 5 9 11 9 8 0 8 -5 -1 -15z m-73 -27 c-3 -7 -5 -2 -5 12
0 14 2 19 5 13 2 -7 2 -19 0 -25z m-17 -8 c0 -5 -5 -10 -11 -10 -5 0 -7 5 -4
10 3 6 8 10 11 10 2 0 4 -4 4 -10z m127 -51 c0 -9 -6 -16 -13 -16 -7 0 -11 4
-8 9 3 4 -2 11 -10 14 -9 3 -16 13 -16 21 0 11 6 8 20 -8 10 -13 19 -19 20
-12 0 6 -4 15 -10 18 -5 3 -10 11 -10 18 0 6 6 3 14 -8 7 -11 13 -27 13 -36z
m669 26 c-2 -14 -16 -22 -16 -10 0 3 0 10 0 15 0 6 4 10 9 10 5 0 8 -7 7 -15z
m859 -1 c31 -6 41 -11 59 -33 18 -22 20 -23 33 -5 7 10 13 14 13 10 0 -5 8 -2
18 5 14 11 15 11 5 -1 -8 -9 -9 -19 -2 -32 5 -10 6 -18 2 -18 -4 0 2 -6 13
-14 10 -8 20 -19 20 -25 1 -6 2 -15 3 -19 0 -5 7 -9 14 -10 34 -3 52 -11 49
-23 -1 -8 4 -5 13 5 8 11 22 21 31 22 9 1 13 0 10 -3 -3 -4 -1 -12 6 -20 8
-10 8 -17 0 -25 -7 -7 -12 -8 -12 -2 0 5 -5 2 -10 -6 -8 -13 -10 -13 -10 -1 0
11 -4 9 -16 -5 -15 -18 -15 -18 -5 3 10 19 8 20 -12 15 -19 -5 -20 -3 -10 10
10 12 10 15 -2 15 -8 0 -12 -5 -9 -11 3 -6 -2 -2 -12 9 l-17 20 7 -20 c5 -14
-1 -11 -17 10 -21 25 -27 28 -41 16 -9 -7 -16 -9 -16 -3 0 16 28 34 41 26 8
-4 9 -3 5 5 -8 13 -54 7 -70 -9 -8 -8 -7 -10 4 -7 8 2 12 2 8 0 -4 -3 -10 -4
-14 -3 -4 1 -11 -4 -16 -12 -8 -10 -9 -9 -5 3 3 9 -1 16 -8 16 -10 0 -11 -5
-4 -19 5 -10 7 -18 3 -18 -4 0 1 -10 12 -22 10 -12 14 -18 7 -15 -6 4 -14 4
-17 -1 -2 -4 4 -9 16 -9 12 -1 18 3 15 11 -3 7 1 13 9 13 7 0 11 -4 8 -9 -3
-5 -1 -15 6 -23 7 -8 7 -15 1 -19 -5 -3 -8 -14 -6 -24 2 -9 4 -21 4 -26 1 -5
4 -6 7 -3 4 3 15 2 25 -3 13 -8 20 -6 28 7 10 17 11 15 15 -19 0 -7 6 -13 13
-13 6 0 15 -3 19 -7 4 -4 13 -3 21 3 7 7 13 7 13 2 0 -5 -12 -15 -26 -21 -19
-9 -24 -9 -18 0 5 7 2 9 -8 5 -9 -3 -24 3 -34 14 -13 15 -20 16 -31 8 -11 -10
-12 -8 -7 6 5 13 4 16 -4 11 -7 -4 -15 0 -19 10 -6 16 -7 16 -15 -2 -7 -18 -8
-18 -7 1 1 11 0 23 -1 28 -1 4 -3 11 -4 17 0 5 -10 16 -21 24 -12 8 -20 26
-20 43 0 15 -5 28 -12 28 -6 0 -15 4 -20 8 -4 5 -3 7 2 6 16 -5 54 32 48 47
-3 8 0 14 5 14 6 0 9 -9 7 -19 -2 -13 1 -18 13 -16 9 2 21 4 26 4 5 1 6 4 3 8
-4 3 -2 12 4 19 7 8 6 14 -2 20 -8 4 -9 3 -5 -4 4 -7 2 -12 -3 -12 -6 0 -11
-7 -11 -17 0 -9 -3 -13 -7 -9 -8 7 -9 11 -12 37 0 5 -5 8 -10 4 -5 -3 -12 -1
-16 5 -4 6 -11 7 -17 4 -7 -5 -9 -2 -5 8 6 17 -16 19 -30 3 -4 -4 -2 -5 5 -1
7 5 12 1 12 -10 0 -14 -3 -15 -12 -6 -7 7 -13 20 -13 30 0 9 -6 16 -13 14 -8
-1 -11 2 -7 8 3 6 12 7 18 3 7 -4 17 -8 22 -9z m195 6 c0 -5 -4 -10 -10 -10
-5 0 -10 5 -10 10 0 6 5 10 10 10 6 0 10 -4 10 -10z m54 -18 c3 -5 -1 -9 -9
-9 -8 0 -12 4 -9 9 3 4 7 8 9 8 2 0 6 -4 9 -8z m-2183 -19 c13 -16 12 -17 -3
-4 -10 7 -18 15 -18 17 0 8 8 3 21 -13z m-106 -35 c5 4 5 1 1 -6 -6 -10 -11
-10 -22 -1 -8 6 -14 14 -14 16 0 3 6 0 13 -6 8 -6 18 -7 22 -3z m2320 -8 c-3
-5 -11 -10 -16 -10 -6 0 -7 5 -4 10 3 6 11 10 16 10 6 0 7 -4 4 -10z m-2285
-36 c0 -8 -19 -13 -24 -6 -3 5 1 9 9 9 8 0 15 -2 15 -3z m25 -25 c-4 -5 -12
-9 -18 -8 -9 0 -8 2 1 6 6 2 9 10 6 15 -4 7 -2 8 5 4 6 -4 9 -12 6 -17z m-181
2 c3 -5 -2 -15 -12 -22 -15 -12 -16 -12 -5 2 7 9 10 19 6 22 -3 4 -4 7 0 7 3
0 8 -4 11 -9z m141 -9 c-3 -3 -11 0 -18 7 -9 10 -8 11 6 5 10 -3 15 -9 12 -12z
m2142 -4 c12 16 14 15 32 -8 11 -14 23 -25 28 -25 11 -1 50 -24 40 -25 -5 0
-5 -5 -2 -10 5 -8 12 -7 22 2 9 7 18 12 20 11 11 -9 26 1 44 30 16 25 20 27
16 10 -3 -15 0 -23 8 -23 23 0 42 -64 23 -76 -7 -5 -8 -3 -3 7 7 12 5 11 -11
-1 -15 -11 -16 -11 -6 0 15 17 16 30 2 30 -5 0 -9 -3 -7 -7 2 -9 -6 -13 -29
-13 -8 0 -12 5 -9 10 4 6 9 8 13 6 4 -2 15 2 25 9 12 8 14 15 8 20 -6 3 -11 1
-11 -6 0 -8 -4 -8 -16 1 -12 11 -15 11 -12 0 2 -8 -3 -14 -10 -15 -7 0 -17 -6
-21 -14 -5 -8 -11 -9 -15 -3 -4 7 -17 5 -36 -5 -36 -17 -38 -24 -7 -20 17 1
22 -3 20 -18 -1 -18 0 -18 11 -3 11 15 13 15 23 -1 7 -11 8 -23 1 -34 -7 -13
-6 -17 4 -15 8 2 12 -5 10 -17 -2 -16 -1 -17 7 -5 5 8 13 11 17 7 11 -10 1
-17 -32 -23 -21 -3 -25 -2 -14 5 23 16 1 27 -23 12 -21 -13 -21 -13 2 12 24
27 21 58 -4 37 -9 -8 -15 -8 -20 0 -3 6 -12 7 -18 4 -7 -4 -9 -4 -5 1 12 13
-11 45 -27 39 -8 -4 -12 -10 -9 -15 3 -5 -6 -4 -19 2 -14 6 -24 18 -23 28 3
18 36 29 36 11 0 -7 -7 -9 -16 -6 -8 3 -12 2 -9 -3 3 -6 14 -9 25 -8 10 1 16
5 13 11 -4 5 -1 6 7 1 8 -5 11 -4 7 2 -4 6 -20 16 -37 23 -18 8 -29 19 -28 29
2 10 -5 16 -19 17 -38 2 -39 4 -18 20 18 13 21 13 29 0 9 -13 12 -12 23 2z
m-2253 -6 c3 -5 -1 -9 -9 -9 -8 0 -12 4 -9 9 3 4 7 8 9 8 2 0 6 -4 9 -8z m78
-10 c3 -11 0 -19 -7 -19 -8 0 -11 7 -7 16 5 14 4 14 -14 1 -18 -14 -18 -14 -5
3 17 22 27 22 33 -1z m108 8 c8 -5 11 -10 5 -10 -5 0 -17 5 -25 10 -8 5 -10
10 -5 10 6 0 17 -5 25 -10z m-25 -18 c-3 -3 -11 0 -18 7 -9 10 -8 11 6 5 10
-3 15 -9 12 -12z m-245 4 c0 -3 -4 -8 -10 -11 -5 -3 -10 -1 -10 4 0 6 5 11 10
11 6 0 10 -2 10 -4z m50 -10 c0 -2 -7 -7 -16 -10 -8 -3 -12 -2 -9 4 6 10 25
14 25 6z m146 -5 c-4 -5 0 -11 6 -14 7 -3 3 -4 -9 -4 -17 1 -19 4 -11 14 12
15 22 18 14 4z m-76 -11 c0 -5 -4 -10 -10 -10 -5 0 -10 5 -10 10 0 6 5 10 10
10 6 0 10 -4 10 -10z m133 -7 c-3 -7 -6 -13 -8 -13 -2 0 -5 6 -8 13 -3 8 1 14
8 14 7 0 11 -6 8 -14z m1907 13 c0 -3 -4 -8 -10 -11 -5 -3 -10 -1 -10 4 0 6 5
11 10 11 6 0 10 -2 10 -4z m-2280 -20 c0 -3 -4 -8 -10 -11 -5 -3 -10 -1 -10 4
0 6 5 11 10 11 6 0 10 -2 10 -4z m28 -21 c-3 -3 -9 2 -12 12 -6 14 -5 15 5 6
7 -7 10 -15 7 -18z m52 15 c0 -5 -4 -10 -10 -10 -5 0 -10 5 -10 10 0 6 5 10
10 10 6 0 10 -4 10 -10z m314 -6 c3 -8 2 -12 -4 -9 -6 3 -10 10 -10 16 0 14 7
11 14 -7z m-179 -15 c-5 -15 -4 -19 4 -15 6 4 11 5 11 2 0 -16 -21 -13 -30 5
-8 15 -9 19 -1 15 6 -4 11 -2 11 3 0 6 3 11 6 11 3 0 2 -10 -1 -21z m48 8 c7
4 5 -2 -3 -12 -14 -17 -13 -18 3 -12 9 3 17 2 17 -4 0 -22 -33 -3 -36 21 -1
14 0 19 2 12 3 -6 11 -9 17 -5z m44 -9 c-3 -8 -6 -5 -6 6 -1 11 2 17 5 13 3
-3 4 -12 1 -19z m-302 2 c-3 -5 -12 -10 -18 -10 -7 0 -6 4 3 10 19 12 23 12
15 0z m115 0 c0 -5 -5 -10 -11 -10 -5 0 -7 5 -4 10 3 6 8 10 11 10 2 0 4 -4 4
-10z m255 -10 c-3 -5 3 -11 12 -14 15 -4 15 -5 -1 -3 -11 1 -20 10 -22 20 -1
9 2 15 7 11 5 -3 7 -9 4 -14z m-200 1 c3 -5 0 -13 -6 -17 -7 -4 -9 -3 -5 4 3
5 0 13 -6 15 -9 4 -10 6 -1 6 6 1 14 -3 18 -8z m166 0 c-11 -7 -10 -10 4 -18
16 -9 16 -11 1 -16 -10 -4 -14 -3 -11 2 3 5 1 12 -5 16 -13 8 -3 25 13 25 8 0
7 -3 -2 -9z m2261 -6 c3 3 17 0 32 -6 18 -8 25 -18 21 -28 -3 -11 0 -9 10 3 8
11 15 15 15 9 0 -6 -7 -16 -15 -23 -14 -11 -19 -7 -16 12 0 4 -6 5 -13 2 -12
-5 -12 -9 2 -23 11 -11 20 -13 24 -7 5 7 8 5 8 -4 0 -9 3 -11 8 -5 11 15 29
16 29 1 0 -8 -10 -12 -24 -10 -14 1 -21 -2 -17 -8 5 -7 2 -8 -6 -3 -8 5 -11 4
-6 -3 4 -6 13 -9 20 -6 8 3 17 0 22 -7 4 -7 3 -10 -3 -6 -6 4 -16 0 -23 -8
-10 -12 -8 -13 10 -10 16 3 20 0 16 -10 -7 -19 13 -30 27 -15 9 9 7 15 -8 26
-19 14 -18 15 15 10 19 -3 29 -2 21 1 -11 5 -11 7 0 15 11 7 9 8 -5 6 -10 -2
-21 2 -23 9 -3 8 3 11 16 8 14 -3 18 0 14 12 -3 8 -9 11 -12 6 -12 -17 -30
-12 -26 7 2 11 0 20 -6 20 -5 0 -9 -5 -9 -11 0 -5 -5 -7 -10 -4 -7 4 -7 13 0
26 13 23 30 25 30 3 0 -9 5 -12 13 -8 7 5 6 0 -3 -11 -14 -17 -13 -18 2 -12
19 7 35 -15 33 -43 0 -8 3 -18 8 -21 5 -4 4 -16 -3 -29 -10 -18 -9 -21 1 -15
7 5 10 4 5 -3 -4 -6 -12 -10 -19 -8 -7 1 -9 1 -4 -1 4 -3 5 -8 2 -13 -3 -5 3
-7 12 -6 12 2 18 12 18 29 0 26 11 47 13 24 1 -12 9 -47 12 -57 1 -3 2 -8 1
-12 -1 -7 13 -11 29 -10 3 0 6 -8 6 -19 0 -18 -2 -18 -12 -5 -16 23 -27 20
-14 -4 6 -11 9 -20 8 -21 -29 -7 -36 -5 -31 9 5 11 3 13 -8 7 -11 -6 -12 -5
-2 5 15 16 0 40 -24 40 -13 0 -13 -3 -2 -17 13 -16 12 -17 -4 -4 -9 8 -15 16
-13 19 8 8 -14 43 -24 37 -13 -8 -40 6 -40 22 0 8 -4 12 -9 8 -5 -3 -12 -1
-16 5 -4 6 -12 7 -18 3 -7 -4 -5 1 3 11 12 16 11 20 -10 36 -14 10 -22 22 -18
26 8 8 -18 48 -32 50 -20 3 -21 4 -15 14 5 8 11 8 19 1 7 -6 15 -8 18 -6z
m-2596 -9 c14 18 15 18 4 -3 -6 -13 -15 -23 -20 -23 -5 0 -14 10 -20 23 -11
21 -10 21 4 3 16 -20 16 -20 32 0z m65 -13 c-12 -20 -14 -14 -5 12 4 9 9 14
11 11 3 -2 0 -13 -6 -23z m64 0 c-1 -22 -7 -28 -26 -30 -23 -1 -23 -1 -1 4 12
2 20 9 16 14 -5 9 1 39 9 39 1 0 2 -12 2 -27z m-85 13 c0 -2 -7 -7 -16 -10 -8
-3 -12 -2 -9 4 6 10 25 14 25 6z m50 -11 c0 -8 -4 -15 -10 -15 -5 0 -7 7 -4
15 4 8 8 15 10 15 2 0 4 -7 4 -15z m196 -21 c-3 -8 -10 -13 -15 -10 -5 4 -12
1 -14 -4 -3 -6 -4 -5 -2 2 1 7 8 12 14 11 6 -2 11 7 12 20 0 12 3 16 6 9 3 -7
2 -20 -1 -28z m-138 1 c-3 -3 -9 2 -12 12 -6 14 -5 15 5 6 7 -7 10 -15 7 -18z
m36 10 c-4 -8 -8 -15 -10 -15 -2 0 -4 7 -4 15 0 8 4 15 10 15 5 0 7 -7 4 -15z
m61 -3 c-3 -3 -11 0 -18 7 -9 10 -8 11 6 5 10 -3 15 -9 12 -12z m-40 -2 c-3
-5 1 -10 9 -10 19 0 21 -16 4 -26 -6 -4 -8 -3 -5 3 4 6 0 14 -9 17 -13 5 -12
26 2 26 3 0 2 -4 -1 -10z m-240 -31 c0 -13 -6 -25 -12 -25 -27 -3 -27 -4 -5
-20 27 -18 28 -35 4 -51 -15 -9 -21 -7 -31 9 -7 11 -8 17 -3 14 6 -3 12 -3 15
1 2 5 2 2 1 -4 -4 -15 12 -17 21 -4 6 11 -21 41 -38 41 -6 0 -2 6 8 14 11 8
23 12 27 10 5 -3 8 3 8 13 0 11 -8 19 -19 20 -14 1 -18 -3 -14 -15 4 -14 3
-14 -5 -2 -14 19 -6 30 21 26 16 -2 22 -10 22 -27z m68 24 c-7 -2 -15 -3 -17
-1 -3 2 -12 -6 -21 -17 -16 -20 -16 -20 -6 0 5 11 20 21 33 22 13 0 17 -1 11
-4z m17 -24 c0 -5 -4 -8 -9 -5 -5 3 -12 -1 -15 -10 -3 -8 -11 -12 -17 -8 -7 4
-10 1 -7 -7 3 -8 13 -16 23 -17 9 -2 15 0 12 5 -3 5 8 18 26 28 29 16 27 14
-11 -23 -26 -23 -39 -43 -33 -47 6 -3 11 -11 11 -16 0 -6 -4 -8 -9 -5 -5 3
-14 -1 -21 -9 -8 -10 -20 -13 -34 -9 -18 6 -19 5 -7 -10 8 -9 9 -16 3 -16 -6
0 -12 4 -14 9 -5 15 -40 17 -45 3 -3 -7 1 -10 10 -6 18 7 32 -12 16 -22 -8 -5
-9 -3 -4 6 5 8 3 11 -6 8 -8 -3 -13 -11 -11 -17 1 -7 -4 -19 -13 -27 -8 -9
-15 -12 -15 -7 0 5 5 14 11 20 9 9 7 12 -9 10 -17 -1 -20 -6 -15 -26 5 -20 3
-23 -10 -18 -9 3 -19 2 -22 -3 -4 -6 0 -10 7 -11 9 0 10 -2 1 -5 -7 -3 -9 -13
-6 -22 3 -10 1 -13 -4 -7 -10 13 -33 18 -33 7 0 -4 6 -14 13 -22 10 -12 9 -12
-5 -1 -9 7 -16 21 -15 32 1 19 17 27 17 8 0 -5 5 -7 11 -3 8 4 8 9 0 17 -16
16 -13 30 4 23 17 -6 21 9 5 19 -5 3 -10 11 -10 18 0 6 6 2 14 -9 14 -18 15
-18 15 4 1 12 1 31 2 43 0 15 6 19 21 17 12 -2 23 3 25 10 3 7 -1 10 -10 6 -8
-3 -18 -1 -22 5 -4 7 0 8 11 4 12 -4 15 -3 10 5 -4 7 -3 12 2 12 5 0 14 -11
20 -25 14 -30 35 -32 62 -5 11 11 20 16 20 12 0 -4 -5 -13 -12 -20 -8 -8 -8
-12 -1 -12 26 0 40 52 21 77 -11 14 -1 36 12 28 4 -3 10 2 14 10 6 17 26 20
26 4z m134 0 c-2 -4 -1 -9 3 -12 5 -2 2 -2 -4 -1 -7 2 -13 -1 -13 -6 0 -6 -5
-10 -11 -10 -8 0 -8 5 1 15 16 19 1 19 -23 1 -18 -14 -18 -15 0 -25 10 -6 13
-11 7 -11 -6 0 -17 7 -24 15 -10 12 -9 16 4 21 9 3 14 9 11 13 -2 4 9 7 25 7
16 0 27 -3 24 -7z m-274 -9 c0 -5 -5 -10 -11 -10 -5 0 -7 5 -4 10 3 6 8 10 11
10 2 0 4 -4 4 -10z m194 -26 c3 -8 2 -13 -3 -10 -5 3 -12 -1 -15 -10 -4 -9 -9
-14 -13 -11 -3 4 -11 -1 -18 -10 -9 -13 -14 -13 -20 -3 -5 8 -4 11 2 7 6 -4
14 0 17 9 3 9 11 12 18 8 8 -5 9 -2 5 10 -4 10 -3 15 3 11 6 -3 10 -1 10 4 0
16 7 13 14 -5z m2616 -10 c0 -2 -9 0 -20 6 -11 6 -20 13 -20 16 0 2 9 0 20 -6
11 -6 20 -13 20 -16z m-2730 -19 c0 -5 -5 -3 -10 5 -5 8 -10 20 -10 25 0 6 5
3 10 -5 5 -8 10 -19 10 -25z m-73 9 c-3 -3 -12 -4 -19 -1 -8 3 -5 6 6 6 11 1
17 -2 13 -5z m2793 -24 c0 -5 -5 -10 -11 -10 -5 0 -7 5 -4 10 3 6 8 10 11 10
2 0 4 -4 4 -10z m134 -146 c3 -8 10 -12 16 -9 17 10 11 -2 -7 -16 -10 -7 -15
-9 -11 -5 10 12 -12 37 -25 29 -6 -3 -7 -1 -3 5 10 17 23 15 30 -4z m36 -28
c0 -2 -8 -10 -17 -17 -16 -13 -17 -12 -4 4 13 16 21 21 21 13z m-3079 -43 c13
-16 12 -17 -3 -4 -10 7 -18 15 -18 17 0 8 8 3 21 -13z"/>
<path d="M1663 3428 c-9 -14 -93 -21 -93 -7 0 5 -7 6 -17 2 -14 -5 -12 -10 13
-31 16 -14 28 -29 27 -34 -2 -4 2 -8 7 -8 12 0 13 27 1 32 -5 2 -2 10 7 18 14
13 15 12 9 -3 -8 -22 9 -22 22 1 6 9 11 11 11 5 0 -7 5 -13 11 -13 5 0 7 6 3
13 -4 6 3 3 15 -7 21 -19 22 -19 15 -1 -6 15 -4 17 10 12 12 -5 15 -3 11 6 -4
6 1 3 9 -7 14 -18 21 -15 17 7 -1 4 7 3 18 -2 10 -6 20 -8 23 -6 2 2 10 -5 17
-17 10 -16 10 -19 -1 -12 -7 4 -10 4 -6 -1 4 -4 3 -14 -3 -22 -6 -7 -8 -13 -3
-13 5 0 3 -4 -5 -9 -12 -7 -12 -13 -3 -24 7 -7 8 -18 4 -22 -4 -5 -1 -5 7 0 9
5 12 4 7 -3 -4 -7 -2 -12 5 -12 8 0 9 -3 0 -13 -6 -8 -8 -17 -5 -20 4 -4 -3
-5 -14 -2 -11 2 -26 -2 -32 -9 -8 -11 -4 -13 20 -11 21 2 28 -1 21 -9 -4 -6
-7 -21 -5 -32 2 -13 -4 -28 -14 -35 -14 -11 -15 -11 -4 1 6 8 12 18 12 23 0 5
-8 1 -17 -10 -10 -10 -13 -12 -8 -4 6 10 0 8 -16 -4 -15 -11 -25 -24 -22 -29
3 -4 9 -3 13 4 5 9 9 9 14 1 4 -6 2 -11 -5 -11 -7 0 -4 -7 7 -15 16 -13 16
-14 2 -9 -21 7 -23 -6 -5 -26 10 -12 9 -12 -6 0 -10 7 -16 18 -13 25 2 6 -2
12 -10 12 -12 0 -11 -5 2 -25 10 -15 11 -21 3 -17 -8 6 -10 4 -4 -5 6 -9 4
-11 -5 -5 -9 6 -11 4 -5 -5 6 -9 4 -11 -6 -5 -11 7 -11 5 1 -11 14 -18 14 -18
-3 -5 -14 11 -20 12 -30 2 -9 -10 -8 -11 4 -6 24 9 34 -13 15 -34 -9 -10 -13
-21 -9 -26 5 -4 3 -5 -4 -1 -8 4 -11 0 -8 -15 4 -18 2 -19 -11 -8 -13 10 -17
10 -24 0 -5 -9 -10 -10 -14 -2 -4 6 -4 16 0 23 4 6 3 8 -4 4 -13 -8 -12 -45 1
-43 5 1 11 -6 12 -16 3 -15 1 -16 -13 -5 -10 9 -13 9 -9 1 5 -8 1 -11 -13 -8
-11 2 -18 0 -15 -5 3 -6 -2 -7 -12 -4 -16 6 -15 4 2 -10 11 -10 14 -15 8 -11
-9 4 -11 1 -7 -9 4 -10 1 -16 -7 -16 -7 0 -9 3 -6 6 3 4 1 16 -5 28 -7 11 -11
26 -9 31 1 6 -3 4 -10 -2 -10 -10 -10 -16 -2 -24 6 -6 9 -17 7 -23 -7 -18 40
-38 54 -24 8 8 15 8 25 0 8 -7 17 -9 20 -6 3 3 12 2 19 -2 21 -13 55 -12 55 2
0 7 -5 12 -11 11 -13 -2 -16 73 -3 90 5 7 14 10 21 6 17 -11 37 -12 31 -3 -8
12 25 30 55 30 5 0 8 10 6 23 -3 12 -5 24 -5 26 -1 2 -10 -4 -21 -14 -19 -17
-22 -18 -37 -2 -16 15 -15 18 8 43 13 14 24 35 24 47 0 16 6 22 23 22 13 0 33
9 45 21 12 12 30 20 40 18 9 -1 15 2 11 7 -3 5 -9 7 -14 4 -5 -3 -14 4 -20 15
-6 11 -8 20 -4 20 3 0 2 6 -5 13 -7 10 -7 17 0 24 8 8 2 18 -17 36 -28 26 -28
26 -8 49 l19 23 -22 -18 c-30 -26 -38 -5 -8 23 15 14 28 19 37 14 7 -5 31 -9
53 -9 26 -1 39 -5 37 -13 -1 -9 6 -7 23 4 28 18 33 29 10 21 -8 -4 -17 -2 -20
2 -2 5 -18 7 -34 6 -38 -3 -80 37 -63 58 15 18 3 30 -15 16 -7 -6 -13 -8 -13
-4 0 4 -7 2 -15 -5 -11 -9 -18 -10 -28 -1 -8 6 -16 8 -20 5 -3 -3 -14 -1 -25
5 -13 7 -22 7 -30 -1 -8 -8 -15 -8 -26 1 -11 10 -16 9 -23 -1z m185 -14 c-15
-15 -13 -18 16 -44 28 -26 20 -36 -12 -16 -9 5 -24 -2 -45 -20 -17 -16 -25
-21 -18 -11 7 9 10 17 6 17 -5 0 0 9 9 19 12 13 14 21 6 26 -8 5 -8 11 1 21 6
7 15 12 19 9 5 -3 11 -1 15 5 3 5 9 10 13 10 3 0 -1 -7 -10 -16z m-8 -198 c-6
-6 -6 -14 1 -23 7 -7 8 -13 5 -13 -4 0 -2 -8 3 -19 8 -14 6 -23 -10 -37 -12
-11 -30 -20 -40 -20 -10 -1 -21 -2 -24 -3 -14 -3 -19 0 -21 14 -1 8 1 13 6 10
12 -8 39 29 36 50 -2 11 -1 25 3 30 3 6 6 18 7 28 3 30 4 30 24 12 14 -12 17
-22 10 -29z m-74 -152 c-1 -8 -13 -25 -26 -39 l-24 -25 22 -22 c20 -21 22 -21
41 -4 18 17 19 17 17 0 -2 -9 -11 -18 -20 -20 -10 -1 -26 -10 -35 -18 -12 -11
-21 -12 -28 -5 -25 25 -55 -77 -31 -108 10 -13 -9 -13 -30 1 -7 4 -16 5 -19 2
-3 -3 -12 -1 -20 5 -10 9 -17 8 -30 -2 -16 -13 -17 -12 -5 2 7 9 11 23 10 30
-2 8 7 13 22 14 19 0 25 6 26 23 2 34 3 35 19 22 8 -7 15 -10 15 -6 0 15 2 22
12 34 6 6 7 12 3 12 -3 0 3 12 14 26 11 15 19 30 16 34 -3 4 2 13 10 20 8 7
15 9 15 6 0 -4 5 -4 10 -1 8 5 8 11 1 19 -8 9 -7 13 3 13 8 0 13 -6 12 -13z"/>
<path d="M1815 3401 c-3 -5 0 -13 5 -16 8 -5 5 -14 -7 -28 l-18 -22 22 19 c15
12 27 16 36 10 7 -5 4 -1 -8 10 -11 10 -19 23 -17 27 3 12 -5 11 -13 0z"/>
<path d="M1815 3231 c2 -11 0 -23 -5 -26 -5 -3 -7 -15 -5 -27 3 -15 -5 -33
-23 -52 -15 -16 -20 -25 -12 -20 8 5 22 9 31 9 29 0 50 25 38 46 -5 10 -6 19
-2 19 4 0 2 5 -5 12 -8 8 -8 15 -2 23 7 9 6 16 -4 25 -13 10 -15 8 -11 -9z m4
-43 c-1 -1 3 -13 9 -25 13 -23 4 -35 -26 -39 -10 -2 -10 2 2 15 9 9 14 28 11
40 -2 13 -2 21 1 18 3 -3 5 -7 3 -9z"/>
<path d="M1700 2975 c-7 -8 -9 -15 -5 -15 4 0 1 -8 -6 -17 -12 -16 -12 -17 2
-6 10 9 19 9 26 2 7 -7 14 -5 21 4 9 11 8 18 -7 31 -16 15 -19 15 -31 1z m34
-27 c-3 -5 -12 -4 -20 3 -7 6 -11 15 -8 21 3 5 12 4 20 -3 7 -6 11 -15 8 -21z"/>
<path d="M1644 2904 c5 -26 -11 -43 -36 -39 -20 4 -20 4 -2 -16 11 -13 21 -16
27 -10 7 7 14 5 21 -5 9 -12 11 -7 11 25 0 22 -6 46 -12 52 -9 9 -11 7 -9 -7z
m13 -39 c0 -8 -3 -13 -5 -10 -3 3 -11 0 -18 -6 -8 -7 -14 -6 -20 2 -4 7 -3 9
3 6 6 -4 16 0 23 8 15 19 17 19 17 0z"/>
<path d="M1895 3431 c-3 -5 -2 -12 3 -15 5 -3 9 1 9 9 0 17 -3 19 -12 6z"/>
<path d="M1709 3382 c6 -11 7 -22 4 -26 -3 -3 -1 -6 6 -6 8 0 11 7 7 15 -4 13
-2 14 14 5 11 -6 26 -8 33 -5 6 4 1 -3 -13 -15 -14 -12 -18 -18 -10 -14 12 7
11 3 -2 -18 -17 -26 -17 -27 2 -23 19 4 19 3 3 -22 -9 -14 -19 -21 -21 -14 -6
19 -21 12 -17 -9 2 -10 -6 -32 -18 -47 -19 -25 -20 -27 -2 -13 19 14 19 14 5
-4 -13 -18 -13 -19 0 -11 13 8 13 7 0 -10 -13 -17 -13 -18 0 -10 9 5 12 5 7
-1 -5 -5 -13 -10 -18 -10 -5 -1 -12 -2 -16 -3 -4 0 1 -7 11 -14 16 -12 16 -14
2 -14 -9 0 -16 3 -17 6 -5 43 -14 58 -23 43 -3 -5 6 -26 20 -47 14 -21 23 -40
19 -43 -3 -3 -5 0 -5 7 0 7 -5 9 -12 5 -8 -5 -6 -11 6 -19 15 -11 15 -13 1
-19 -11 -4 -14 -2 -10 7 4 6 -1 3 -11 -8 -14 -17 -16 -18 -10 -2 3 11 2 16 -4
12 -12 -8 -9 -37 5 -47 6 -5 4 -8 -4 -8 -11 0 -10 -4 5 -16 10 -8 13 -13 7 -9
-7 3 -23 8 -34 10 -32 6 -34 13 -14 35 10 11 16 23 12 26 -3 3 -13 -6 -22 -19
-13 -20 -14 -30 -5 -47 11 -21 11 -21 -18 -6 -28 14 -42 13 -42 -5 0 -4 9 -6
20 -4 16 3 26 -6 18 -17 -1 -2 4 -13 10 -25 11 -19 10 -21 -7 -18 -11 2 -22
-3 -25 -11 -5 -12 -2 -12 17 -3 12 7 24 12 27 11 3 -1 5 8 5 21 0 12 4 28 8
35 11 16 31 16 24 -1 -3 -7 3 -13 13 -13 10 0 17 3 15 7 -3 3 4 14 15 24 24
22 26 37 4 33 -29 -5 -25 16 7 34 26 15 28 20 19 38 -10 19 -6 25 14 21 5 -1
4 4 -2 11 -7 9 -8 19 -2 28 6 8 10 11 10 7 0 -13 54 32 56 47 1 8 -5 13 -15
11 -27 -4 -33 6 -15 26 9 10 20 16 25 14 14 -9 21 15 9 30 -7 8 -9 15 -5 15 4
0 2 6 -4 14 -10 12 -10 20 0 38 7 13 14 28 15 35 3 16 -27 26 -39 14 -7 -7
-17 -7 -29 0 -17 9 -18 8 -9 -9z m67 -124 c4 -7 3 -10 -1 -5 -5 4 -18 -2 -30
-13 -17 -16 -22 -17 -22 -6 0 8 4 13 8 11 3 -3 12 2 19 10 15 18 17 18 26 3z
m-41 -58 c4 -6 10 -8 15 -5 5 3 11 1 15 -4 3 -6 -4 -8 -15 -6 -13 2 -20 -1
-18 -8 2 -7 -1 -12 -7 -12 -14 0 -16 25 -2 25 7 0 5 5 -3 10 -9 6 -10 10 -3
10 6 0 15 -5 18 -10z m-55 -206 c0 -8 -19 -13 -24 -6 -3 5 1 9 9 9 8 0 15 -2
15 -3z"/>
<path d="M1510 3380 c0 -5 5 -10 10 -10 6 0 10 5 10 10 0 6 -4 10 -10 10 -5 0
-10 -4 -10 -10z"/>
<path d="M1616 3357 c-31 -35 -35 -61 -5 -28 20 21 22 21 40 5 10 -9 19 -12
19 -6 0 6 -4 14 -10 17 -17 10 -11 24 9 22 11 0 19 -4 19 -7 -2 -19 3 -30 11
-26 5 3 8 -2 7 -12 0 -9 6 -17 14 -17 8 0 15 7 15 15 0 8 5 22 10 30 8 13 6
13 -8 2 -16 -14 -42 -8 -32 8 5 8 -19 22 -47 25 -9 1 -28 -12 -42 -28z m114
-37 c0 -5 -2 -10 -4 -10 -3 0 -8 5 -11 10 -3 6 -1 10 4 10 6 0 11 -4 11 -10z"/>
<path d="M1473 3348 c-30 -33 -44 -64 -37 -83 6 -15 8 -15 25 1 20 18 43 10
35 -12 -3 -8 -1 -14 4 -14 6 0 10 5 10 10 0 6 5 10 11 10 5 0 8 -4 5 -9 -3 -5
2 -8 11 -7 10 0 17 -7 18 -22 1 -12 6 -27 12 -33 11 -11 43 -2 43 12 0 11 -22
7 -33 -6 -5 -5 -5 1 -2 14 5 15 3 21 -3 17 -7 -4 -9 2 -7 15 6 31 -4 42 -23
27 -15 -12 -16 -11 -3 5 8 10 9 17 3 17 -6 0 -14 -4 -17 -10 -4 -6 -13 -5 -25
2 -16 11 -17 14 -3 35 10 15 11 23 4 23 -6 0 -14 -7 -17 -15 -4 -8 -10 -15
-16 -15 -5 0 -1 11 9 24 16 21 20 22 40 9 14 -9 23 -11 23 -5 0 10 -30 32 -43
32 -2 0 -13 -10 -24 -22z m-3 -52 c0 -2 -7 -9 -15 -16 -13 -11 -14 -10 -9 4 5
14 24 23 24 12z"/>
<path d="M1540 3320 c-6 -11 -16 -20 -23 -19 -9 0 -9 2 1 6 14 5 16 23 3 23
-12 0 -23 -29 -15 -41 3 -6 10 -6 17 -1 14 11 77 10 94 -1 7 -4 10 -14 6 -22
-4 -11 -1 -13 11 -9 18 7 17 24 -2 39 -10 8 -9 11 6 11 14 0 19 -6 16 -19 -2
-11 2 -17 9 -14 7 2 11 11 9 21 -2 9 3 16 9 16 7 0 9 -3 6 -7 -4 -3 -1 -13 6
-21 8 -11 8 -14 0 -9 -6 4 -14 3 -17 -2 -3 -5 1 -12 10 -15 22 -8 24 -8 22 7
-2 6 5 12 14 12 9 0 20 4 25 9 4 5 3 6 -4 2 -8 -4 -23 3 -38 18 -14 14 -27 20
-31 15 -4 -6 -13 -4 -23 5 -15 14 -19 13 -36 -6 l-18 -22 -15 22 c-18 27 -28
28 -42 2z m30 0 c0 -5 -5 -10 -11 -10 -5 0 -7 5 -4 10 3 6 8 10 11 10 2 0 4
-4 4 -10z m75 0 c3 -5 1 -10 -4 -10 -6 0 -11 5 -11 10 0 6 2 10 4 10 3 0 8 -4
11 -10z"/>
<path d="M1574 3263 c2 -15 8 -29 15 -31 6 -2 9 -7 7 -11 -3 -4 8 -7 25 -7 16
0 29 4 29 8 0 5 5 6 11 2 8 -5 8 -9 -1 -14 -6 -4 -11 -10 -11 -14 1 -3 -2 -5
-6 -3 -5 1 -7 6 -5 11 2 5 -4 4 -12 -3 -14 -12 -18 -51 -5 -51 3 0 6 -10 5
-22 -1 -17 -7 -22 -21 -20 -18 2 -19 2 -2 -8 9 -6 21 -9 26 -5 5 3 13 0 17 -6
5 -8 3 -9 -6 -4 -8 5 -11 4 -6 -3 4 -6 -3 -9 -18 -8 -13 2 -23 -2 -22 -8 0 -6
-3 -12 -8 -13 -5 -1 -13 -7 -17 -15 -7 -10 -9 -10 -9 0 0 7 -5 10 -12 6 -7 -4
-8 -3 -4 4 4 7 3 12 -3 12 -23 0 -20 -20 6 -34 15 -8 22 -15 16 -16 -17 0 -17
-17 0 -23 9 -3 13 2 12 16 -2 19 26 49 48 53 4 1 10 3 15 4 4 1 11 1 17 0 5
-1 7 2 3 6 -4 4 -3 13 3 20 9 10 7 15 -5 20 -9 3 -13 10 -10 15 3 5 1 9 -5 9
-12 0 -8 27 7 42 9 9 13 7 18 -5 3 -9 11 -14 16 -11 6 4 5 10 -3 15 -11 6 -10
12 4 27 9 10 14 22 10 25 -3 4 0 7 8 7 8 1 2 8 -14 16 -20 11 -32 12 -47 4
-20 -11 -22 -9 -24 19 -1 8 -11 16 -23 17 -18 3 -21 -1 -19 -23z m36 11 c0 -8
-19 -13 -24 -6 -3 5 1 9 9 9 8 0 15 -2 15 -3z m4 -40 c3 -8 2 -12 -4 -9 -6 3
-10 10 -10 16 0 14 7 11 14 -7z m56 5 c0 -5 4 -8 9 -5 11 7 9 -21 -2 -29 -4
-3 -5 -2 -2 2 9 12 -16 32 -33 26 -15 -4 -15 -3 -2 6 19 14 30 14 30 0z"/>
<path d="M1510 3200 c0 -5 5 -10 10 -10 6 0 10 5 10 10 0 6 -4 10 -10 10 -5 0
-10 -4 -10 -10z"/>
<path d="M1581 3170 c-8 -4 -11 -15 -8 -24 7 -19 36 -11 33 9 -3 21 -10 25
-25 15z"/>
<path d="M1531 3161 c-7 -5 -31 -8 -52 -7 -39 2 -52 -18 -13 -20 10 -1 24 -3
29 -4 21 -5 36 0 29 11 -4 7 2 7 17 -1 33 -17 38 -24 13 -16 -15 4 -21 2 -21
-9 0 -18 2 -18 30 -4 21 10 21 10 3 -5 -11 -9 -18 -16 -15 -17 2 0 12 -2 22
-4 12 -2 17 2 15 13 -2 11 3 16 15 16 9 -1 17 3 17 8 0 5 -8 8 -17 7 -24 -3
-54 11 -48 21 8 13 -9 20 -24 11z"/>
<path d="M1466 3121 c-9 -13 35 -22 53 -10 13 8 13 9 1 6 -8 -2 -23 0 -32 4
-10 5 -19 5 -22 0z"/>
<path d="M1461 3082 c-7 -14 -5 -21 10 -30 20 -13 26 -3 8 15 -8 8 -7 13 2 18
8 5 10 4 5 -4 -4 -6 -1 -14 8 -17 9 -3 13 -14 10 -30 -3 -15 0 -23 7 -22 6 2
14 -4 16 -12 4 -13 3 -13 -6 0 -10 13 -11 13 -12 0 -1 -8 -1 -18 0 -22 0 -5
-4 -8 -10 -8 -6 0 -7 -5 -2 -12 9 -15 12 -71 4 -62 -6 5 -7 9 -10 35 0 5 -5 8
-10 5 -12 -8 -8 -36 8 -45 9 -6 9 -13 0 -35 -9 -18 -15 -23 -20 -14 -4 7 -11
9 -16 5 -16 -17 21 -26 39 -10 15 13 18 13 18 2 0 -12 2 -11 10 1 6 9 5 19 -3
28 -9 11 -6 18 12 33 13 10 27 16 32 13 16 -10 9 9 -8 22 -17 13 -17 14 2 8
16 -5 17 -4 5 4 -8 6 -17 9 -21 6 -17 -10 -18 18 -2 43 10 15 13 24 8 21 -6
-4 -16 2 -23 12 -9 14 -8 21 3 30 8 7 20 8 27 4 21 -13 39 -13 35 -1 -2 7 -11
11 -21 9 -9 -2 -16 2 -16 9 0 8 -4 8 -15 -1 -13 -11 -14 -10 -9 4 4 9 1 16 -6
16 -8 0 -10 -8 -7 -22 l6 -23 -16 23 c-19 27 -29 28 -42 4z m68 -141 c8 -14 7
-22 -2 -29 -10 -9 -13 -4 -12 19 0 34 1 35 14 10z"/>
<path d="M1399 3038 c-11 -8 -10 -9 3 -4 10 3 20 1 23 -3 6 -11 61 -9 72 2 4
5 3 8 -2 7 -5 -1 -12 -1 -15 0 -16 7 -70 6 -81 -2z"/>
<path d="M1611 3016 c-8 -10 -9 -16 -1 -21 5 -3 10 -5 11 -3 4 18 7 38 4 38
-1 0 -8 -6 -14 -14z"/>
<path d="M1436 3011 c-15 -6 -16 -10 -7 -16 8 -4 17 -2 23 6 7 11 11 11 15 2
6 -15 33 -17 33 -3 0 6 -4 10 -9 10 -5 0 -15 2 -23 4 -7 3 -22 1 -32 -3z"/>
<path d="M1394 2950 c0 -22 4 -40 9 -40 4 0 5 5 2 10 -4 6 -3 10 2 9 22 -4 25
2 7 16 -19 15 -19 15 1 8 20 -6 20 -6 1 15 -11 12 -20 22 -21 22 -1 0 -1 -18
-1 -40z"/>
<path d="M1420 2978 c0 -11 36 -28 44 -21 3 3 6 1 6 -5 0 -6 -4 -14 -10 -17
-5 -3 -10 -1 -10 4 0 6 -5 11 -11 11 -5 0 -8 -4 -5 -8 6 -11 -5 -26 -29 -40
-11 -6 -14 -12 -7 -12 9 0 11 -7 7 -22 -5 -20 -4 -21 5 -6 10 17 13 17 42 2
16 -9 27 -11 24 -5 -4 6 -2 11 4 11 16 0 3 18 -22 31 -16 9 -19 8 -13 -2 6 -8
4 -10 -5 -4 -9 6 -11 4 -5 -5 5 -9 4 -11 -4 -6 -17 11 6 37 26 29 10 -4 14 -2
10 4 -8 13 17 35 29 25 4 -4 3 0 -4 9 -6 9 -9 19 -5 22 7 8 3 9 -39 11 -16 1
-28 -1 -28 -6z m50 -98 c0 -5 -4 -10 -10 -10 -5 0 -10 5 -10 10 0 6 5 10 10
10 6 0 10 -4 10 -10z"/>
<path d="M1330 2894 c-13 -16 -13 -17 1 -12 9 4 21 2 26 -3 6 -6 10 -4 10 5 0
8 -4 13 -8 10 -4 -2 -9 1 -11 7 -2 7 -10 4 -18 -7z"/>
<path d="M2330 3355 c0 -2 6 -8 13 -14 10 -8 14 -7 14 2 0 8 -6 14 -14 14 -7
0 -13 -1 -13 -2z"/>
<path d="M2139 3324 c-6 -8 -10 -14 -8 -15 31 -6 40 -5 50 7 6 8 10 14 8 15
-31 6 -40 5 -50 -7z m36 -3 c-9 -8 -36 -10 -30 -2 2 4 11 8 20 8 8 0 13 -3 10
-6z"/>
<path d="M2067 3319 c13 -12 31 -15 30 -4 -1 5 -10 10 -20 10 -10 1 -14 -2
-10 -6z"/>
<path d="M1844 3288 c-4 -7 -3 -10 1 -5 5 4 18 -2 30 -13 19 -18 24 -19 34 -6
7 9 8 16 2 20 -5 4 -13 1 -16 -4 -5 -8 -13 -6 -25 5 -14 13 -20 14 -26 3z"/>
<path d="M2545 3250 c-3 -5 0 -12 5 -15 8 -5 6 -13 -5 -25 -11 -12 -13 -20 -5
-25 6 -3 9 -3 8 2 -1 4 5 17 15 28 9 11 18 24 20 29 3 12 -31 17 -38 6z m35
-6 c0 -8 -19 -13 -24 -6 -3 5 1 9 9 9 8 0 15 -2 15 -3z"/>
<path d="M2627 3219 c7 -7 15 -10 18 -7 3 3 -2 9 -12 12 -14 6 -15 5 -6 -5z"/>
<path d="M2476 3212 c-3 -5 1 -9 9 -9 8 0 12 4 9 9 -3 4 -7 8 -9 8 -2 0 -6 -4
-9 -8z"/>
<path d="M1910 3182 c0 -5 6 -15 14 -21 12 -10 14 -9 12 5 -3 19 -26 33 -26
16z"/>
<path d="M2646 3173 c-4 -11 -1 -11 14 -3 24 13 25 17 5 17 -8 0 -16 -6 -19
-14z"/>
<path d="M1937 3114 c-7 -8 15 -44 27 -44 5 0 2 8 -7 18 -10 10 -14 22 -10 25
3 4 4 7 1 7 -2 0 -7 -3 -11 -6z"/>
<path d="M2806 3091 c5 -18 3 -23 -8 -18 -10 3 -14 -1 -13 -16 1 -11 8 -23 15
-25 8 -3 11 1 7 10 -3 9 -1 20 5 26 7 7 6 16 -1 29 -11 16 -11 15 -5 -6z"/>
<path d="M1810 3041 c0 -6 4 -13 10 -16 6 -3 7 1 4 9 -7 18 -14 21 -14 7z"/>
<path d="M1774 3018 l-19 -23 23 19 c21 18 27 26 19 26 -2 0 -12 -10 -23 -22z"/>
<path d="M2214 3311 c-21 -17 -21 -18 -4 -29 24 -14 59 18 38 36 -9 7 -19 5
-34 -7z m25 -17 c-6 -7 -15 -11 -21 -8 -5 3 -4 12 3 20 6 7 15 11 21 8 5 -3 4
-12 -3 -20z"/>
<path d="M2444 3239 c0 -13 3 -15 13 -7 7 6 13 12 13 13 0 2 -6 5 -13 8 -7 3
-13 -3 -13 -14z"/>
<path d="M2250 3219 c0 -5 5 -7 10 -4 6 3 10 8 10 11 0 2 -4 4 -10 4 -5 0 -10
-5 -10 -11z"/>
<path d="M2360 3170 c-8 -5 -12 -12 -9 -15 4 -3 12 1 19 10 14 17 11 19 -10 5z"/>
<path d="M2193 3093 c4 -3 3 -11 -3 -17 -6 -8 -3 -12 10 -12 15 0 16 4 9 18
-5 10 -13 18 -16 18 -3 0 -3 -3 0 -7z"/>
<path d="M2059 3236 c0 -1 -2 -8 -4 -17 -2 -11 5 -15 25 -15 34 0 35 29 2 31
-12 1 -22 1 -23 1z m31 -20 c-7 -7 -13 -7 -20 0 -6 6 -3 10 10 10 13 0 16 -4
10 -10z"/>
<path d="M2166 3228 c3 -5 10 -6 15 -3 13 9 11 12 -6 12 -8 0 -12 -4 -9 -9z"/>
<path d="M1976 3211 c-4 -6 2 -16 14 -23 11 -7 20 -16 20 -21 0 -4 -5 -5 -10
-2 -6 4 -10 3 -9 -2 1 -4 1 -14 0 -22 -1 -11 -4 -11 -18 0 -16 13 -17 12 -5
-3 8 -9 19 -15 26 -12 6 2 23 -7 36 -21 l23 -25 -24 -26 c-23 -26 -23 -26 -1
-13 12 8 22 16 22 20 0 13 57 4 73 -11 17 -16 16 -18 -8 -34 -23 -15 -27 -45
-4 -30 5 3 7 10 4 15 -5 8 7 13 27 10 12 -1 2 28 -17 49 -18 20 -18 21 6 46
23 26 23 26 1 13 -12 -8 -24 -21 -27 -29 -7 -22 -44 -20 -51 2 -3 10 -11 18
-17 18 -7 0 -6 4 3 10 10 6 11 10 3 10 -7 0 -12 3 -12 8 1 4 0 12 -1 17 -1 6
-3 16 -4 24 -2 19 -42 45 -50 32z m44 -27 c0 -2 -9 0 -20 6 -11 6 -20 13 -20
16 0 2 9 0 20 -6 11 -6 20 -13 20 -16z m6 -50 c2 -12 -1 -13 -12 -3 -7 6 -11
16 -8 21 7 11 17 3 20 -18z"/>
<path d="M2273 3168 c-11 -19 -13 -39 -1 -32 5 3 7 9 4 12 -3 3 -1 11 5 19 6
7 9 13 6 13 -3 0 -9 -6 -14 -12z"/>
<path d="M2220 3105 c0 -2 6 -8 13 -14 10 -8 14 -7 14 2 0 8 -6 14 -14 14 -7
0 -13 -1 -13 -2z"/>
<path d="M2057 2961 c1 -2 -5 -18 -13 -35 -12 -25 -12 -28 0 -13 7 10 16 14
17 9 3 -6 9 -5 15 2 7 8 6 15 -5 26 -9 8 -15 13 -14 11z"/>
<path d="M2675 2760 c3 -5 8 -10 11 -10 2 0 4 5 4 10 0 6 -5 10 -11 10 -5 0
-7 -4 -4 -10z"/>
<path d="M2883 3026 c4 -5 2 -15 -4 -22 -8 -10 -6 -12 10 -9 11 2 24 -1 28 -8
10 -17 11 -47 1 -53 -15 -10 -8 -23 12 -21 11 1 20 5 20 10 0 5 6 7 14 4 9 -4
13 0 11 11 -2 9 -4 21 -4 26 -1 5 -4 6 -8 2 -4 -3 -25 11 -47 31 -22 21 -37
34 -33 29z m85 -82 c1 0 -10 -6 -25 -13 -26 -10 -27 -10 -9 4 11 8 14 15 8 15
-7 0 -12 5 -12 11 0 8 6 7 18 -2 9 -7 18 -14 20 -15z"/>
<path d="M2990 2882 c0 -7 5 -12 11 -12 5 0 8 -4 4 -9 -3 -5 -1 -12 4 -15 13
-8 7 22 -7 36 -9 9 -12 9 -12 0z"/>
<path d="M1920 3045 c-10 -12 -16 -13 -27 -4 -17 15 -24 8 -25 -22 -1 -13 -5
-29 -10 -35 -4 -6 -2 -11 7 -11 8 0 12 4 9 8 -2 4 1 11 7 15 8 5 8 8 -1 14 -8
5 -7 9 5 13 9 4 14 3 11 -2 -3 -4 1 -17 9 -27 15 -19 15 -19 8 0 -5 15 -3 18
10 13 9 -3 21 1 29 11 12 15 11 16 -4 3 -19 -15 -25 -2 -7 16 7 7 7 13 1 17
-5 3 -15 -1 -22 -9z m20 2 c0 -2 -10 -12 -22 -23 l-23 -19 19 23 c18 21 26 27
26 19z"/>
<path d="M1920 2925 c-7 -9 -8 -15 -2 -15 5 0 12 7 16 15 3 8 4 15 2 15 -2 0
-9 -7 -16 -15z"/>
<path d="M1801 2917 c-7 -7 -7 -15 0 -24 14 -15 -2 -18 -18 -2 -17 17 -47 -19
-32 -37 10 -12 15 -12 31 3 15 14 21 14 27 4 6 -10 10 -9 15 4 5 14 9 15 20 6
22 -19 28 4 6 24 -11 10 -18 21 -15 25 7 11 -23 8 -34 -3z m40 -24 c13 -16 17
-22 10 -16 -12 10 -18 10 -30 0 -11 -9 -13 -9 -8 0 4 6 3 14 -3 18 -6 4 -8 11
-5 16 8 13 9 12 36 -18z m-62 -29 c-6 -7 -15 -11 -21 -8 -5 3 -4 12 3 20 6 7
15 11 21 8 5 -3 4 -12 -3 -20z"/>
<path d="M1713 2873 c0 -9 4 -10 14 -2 7 6 13 12 13 14 0 1 -6 2 -13 2 -8 0
-14 -6 -14 -14z"/>
<path d="M1979 2863 c-13 -16 -12 -17 4 -4 9 7 17 15 17 17 0 8 -8 3 -21 -13z"/>
<path d="M1925 2849 c-3 -4 2 -6 10 -5 21 3 28 13 10 13 -9 0 -18 -4 -20 -8z"/>
<path d="M2669 3018 c-6 -20 -6 -39 0 -42 4 -3 7 6 7 20 0 20 -4 32 -7 22z"/>
<path d="M2714 2893 c21 -25 36 -30 36 -11 0 6 -3 8 -7 5 -3 -4 -16 1 -27 10
-21 18 -21 18 -2 -4z"/>
<path d="M2729 3004 c-1 -5 -1 -13 0 -18 1 -5 -4 -6 -12 -3 -7 3 -14 -1 -14
-9 0 -7 4 -11 9 -8 5 4 20 -4 34 -17 13 -12 24 -17 24 -11 0 7 -6 12 -12 12
-9 0 -8 4 2 10 11 7 11 10 2 10 -7 0 -11 4 -8 9 3 5 -1 14 -9 21 -8 7 -16 9
-16 4z m17 -30 c1 -9 0 -13 -4 -10 -3 4 -7 14 -8 22 -1 9 0 13 4 10 3 -4 7
-14 8 -22z"/>
<path d="M2814 2707 c-4 -7 -4 -9 1 -5 4 4 13 0 20 -8 11 -15 12 -15 12 -1 0
20 -24 30 -33 14z"/>
<path d="M2935 2841 c-3 -5 -2 -12 3 -15 5 -3 9 1 9 9 0 17 -3 19 -12 6z"/>
<path d="M3080 2761 c0 -6 -1 -14 -2 -18 -2 -3 5 -7 15 -9 21 -3 22 3 2 22 -8
9 -15 11 -15 5z"/>
<path d="M2863 2735 c0 -8 4 -12 9 -9 5 3 6 10 3 15 -9 13 -12 11 -12 -6z"/>
<path d="M2909 2708 c-6 -27 -5 -39 4 -45 7 -3 9 -3 5 2 -4 4 -3 14 3 21 7 8
7 14 -1 19 -5 3 -10 5 -11 3z"/>
<path d="M2986 2621 c-3 -5 2 -15 12 -22 15 -12 16 -12 5 2 -7 9 -10 19 -6 22
3 4 4 7 0 7 -3 0 -8 -4 -11 -9z"/>
<path d="M2949 2763 c0 -5 -2 -16 -4 -25 -2 -11 9 -25 32 -38 22 -13 32 -24
27 -33 -4 -6 2 -4 13 6 11 9 23 14 28 10 5 -5 0 4 -11 19 -10 14 -21 22 -23
16 -2 -5 -10 0 -17 11 -10 13 -21 18 -32 14 -15 -6 -15 -5 -3 10 9 11 10 17 2
17 -6 0 -11 -3 -12 -7z m61 -58 c6 0 10 -3 10 -7 0 -11 -10 -8 -43 13 -19 11
-24 18 -15 22 7 2 19 -3 26 -12 7 -9 17 -16 22 -16z"/>
<path d="M3026 2642 c-3 -5 1 -15 8 -21 11 -10 14 -9 12 3 -3 21 -13 29 -20
18z"/>
<path d="M3098 2653 c6 -2 10 -9 7 -14 -4 -5 1 -6 10 -2 13 5 14 7 3 14 -7 5
-17 8 -23 8 -5 0 -4 -3 3 -6z"/>
<path d="M3116 2601 c-3 -5 1 -11 9 -14 9 -4 12 -1 8 9 -6 16 -10 17 -17 5z"/>
<path d="M3224 2519 c0 -18 22 -15 29 5 3 6 -3 12 -12 12 -9 0 -17 -8 -17 -17z"/>
<path d="M3276 2472 c-3 -5 1 -15 8 -21 11 -10 14 -9 12 3 -3 21 -13 29 -20
18z"/>
<path d="M395 2480 c-3 -5 -13 -6 -22 -3 -11 4 -14 3 -9 -6 4 -6 3 -18 -3 -25
-8 -9 -7 -13 4 -13 8 0 15 4 15 9 0 5 5 6 12 2 7 -4 8 -3 4 5 -4 6 -2 18 4 26
7 8 10 15 7 15 -3 0 -8 -4 -12 -10z"/>
</g>
</svg>
